<svg width="62" height="62" viewBox="0 0 62 62" fill="none" xmlns="http://www.w3.org/2000/svg">
<path fill-rule="evenodd" clip-rule="evenodd" d="M17.2045 28.106C16.0764 28.1693 15.542 29.3151 12.2074 29.3869L12.1321 30.8755L23.9526 30.8446L23.9667 29.4506C21.7665 29.4759 19.4056 29.1375 17.2045 28.106Z" fill="url(#paint0_angular_727_23489)" stroke="#35C2C1" stroke-width="0.33793"/>
<path fill-rule="evenodd" clip-rule="evenodd" d="M17.2045 33.622C16.0764 33.5587 15.542 32.4129 12.2074 32.341L12.1321 30.8525L23.9526 30.8834L23.9667 32.2774C21.7665 32.2521 19.4056 32.5905 17.2045 33.622Z" fill="url(#paint1_angular_727_23489)" stroke="#35C2C1" stroke-width="0.33793"/>
<path fill-rule="evenodd" clip-rule="evenodd" d="M17.0323 28.1807C16.955 29.8081 16.8232 30.2767 15.7215 30.8431C15.663 30.8596 15.6629 30.8684 15.6775 30.8745C15.6629 30.8806 15.663 30.8893 15.7215 30.9058C16.8232 31.4722 16.955 31.9408 17.0323 33.5683C17.1643 31.9242 17.8314 31.1912 18.3337 30.9058C18.3922 30.8893 18.3923 30.8806 18.3777 30.8745C18.3923 30.8684 18.3922 30.8596 18.3337 30.8431C17.8314 30.5577 17.1643 29.8248 17.0323 28.1807Z" fill="url(#paint2_angular_727_23489)" stroke="#35C2C1" stroke-width="0.33793"/>
<path fill-rule="evenodd" clip-rule="evenodd" d="M44.7956 28.3779C45.9237 28.4413 46.4581 29.5871 49.7927 29.6589L49.868 31.1474L38.0475 31.1166L38.0334 29.7226C40.2336 29.7478 42.5945 29.4094 44.7956 28.3779Z" fill="url(#paint3_angular_727_23489)" stroke="#35C2C1" stroke-width="0.33793"/>
<path fill-rule="evenodd" clip-rule="evenodd" d="M44.7956 33.894C45.9237 33.8306 46.4581 32.6848 49.7927 32.613L49.868 31.1245L38.0475 31.1554L38.0334 32.5494C40.2336 32.5241 42.5945 32.8625 44.7956 33.894Z" fill="url(#paint4_angular_727_23489)" stroke="#35C2C1" stroke-width="0.33793"/>
<path fill-rule="evenodd" clip-rule="evenodd" d="M44.9676 28.4536C44.8356 30.0977 44.1685 30.8275 43.6662 31.1129C43.615 31.1274 43.6101 31.1381 43.6191 31.1443L43.6222 31.1474C43.6104 31.1536 43.6113 31.1633 43.6662 31.1788C44.1685 31.4642 44.8356 32.194 44.9676 33.8381C45.0449 32.2107 45.1767 31.7452 46.2784 31.1788C46.3333 31.1633 46.3342 31.1536 46.3224 31.1474C46.3216 31.147 46.3233 31.1447 46.3224 31.1443C46.3342 31.1381 46.3333 31.1284 46.2784 31.1129C45.1767 30.5465 45.0448 30.0811 44.9676 28.4536Z" fill="url(#paint5_angular_727_23489)" stroke="#35C2C1" stroke-width="0.33793"/>
<path fill-rule="evenodd" clip-rule="evenodd" d="M28.106 44.7954C28.1693 45.9234 29.3151 46.4578 29.3869 49.7925L30.8755 49.8678L30.8446 38.0473L29.4506 38.0332C29.4759 40.2334 29.1375 42.5943 28.106 44.7954Z" fill="url(#paint6_angular_727_23489)" stroke="#35C2C1" stroke-width="0.33793"/>
<path fill-rule="evenodd" clip-rule="evenodd" d="M33.6223 44.7953C33.5589 45.9234 32.4131 46.4578 32.3413 49.7925L30.8528 49.8678L30.8836 38.0473L32.2776 38.0332C32.2524 40.2334 32.5907 42.5943 33.6223 44.7953Z" fill="url(#paint7_angular_727_23489)" stroke="#35C2C1" stroke-width="0.33793"/>
<path fill-rule="evenodd" clip-rule="evenodd" d="M30.8619 43.6162C30.8566 43.6217 30.8514 43.6372 30.8431 43.6664C30.5577 44.1687 29.8247 44.8359 28.1807 44.9678C29.8081 45.0451 30.2767 45.177 30.8431 46.2787C30.8596 46.3372 30.8684 46.3372 30.8745 46.3226C30.8806 46.3372 30.8893 46.3372 30.9058 46.2787C31.4722 45.177 31.9408 45.0451 33.5683 44.9678C31.9242 44.8359 31.1912 44.1687 30.9058 43.6664C30.8893 43.6079 30.8806 43.6079 30.8745 43.6225C30.8714 43.6152 30.8672 43.6107 30.8619 43.6162Z" fill="url(#paint8_angular_727_23489)" stroke="#35C2C1" stroke-width="0.33793"/>
<path fill-rule="evenodd" clip-rule="evenodd" d="M28.3777 17.2043C28.441 16.0762 29.5869 15.5418 29.6587 12.2072L31.1472 12.1318L31.1163 23.9524L29.7223 23.9664C29.7476 21.7663 29.4092 19.4054 28.3777 17.2043Z" fill="url(#paint9_angular_727_23489)" stroke="#35C2C1" stroke-width="0.33793"/>
<path fill-rule="evenodd" clip-rule="evenodd" d="M33.894 17.2043C33.8306 16.0762 32.6848 15.5418 32.613 12.2072L31.1245 12.1318L31.1554 23.9524L32.5494 23.9664C32.5241 21.7663 32.8625 19.4054 33.894 17.2043Z" fill="url(#paint10_angular_727_23489)" stroke="#35C2C1" stroke-width="0.33793"/>
<path fill-rule="evenodd" clip-rule="evenodd" d="M31.1129 15.7215C30.5465 16.8232 30.0811 16.955 28.4536 17.0323C30.0977 17.1643 30.8275 17.8314 31.1129 18.3337C31.1294 18.3922 31.1413 18.3923 31.1474 18.3777C31.1535 18.3923 31.1623 18.3922 31.1788 18.3337C31.4642 17.8314 32.194 17.1643 33.8381 17.0323C32.2107 16.955 31.7452 16.8232 31.1788 15.7215C31.1623 15.663 31.1535 15.6629 31.1474 15.6775C31.1261 15.6526 31.1222 15.7097 31.1129 15.7215Z" fill="url(#paint11_angular_727_23489)" stroke="#35C2C1" stroke-width="0.33793"/>
<path fill-rule="evenodd" clip-rule="evenodd" d="M19.1985 38.6931C18.4456 39.5356 18.878 40.7236 16.5708 43.1324L17.5701 44.2382L25.9066 35.858L24.9309 34.8623C23.393 36.4359 21.4843 37.8661 19.1985 38.6931Z" fill="url(#paint12_angular_727_23489)" stroke="#35C2C1" stroke-width="0.33793"/>
<path fill-rule="evenodd" clip-rule="evenodd" d="M23.0993 42.5938C22.2568 43.3467 21.0687 42.9144 18.66 45.2216L17.5542 44.2223L25.9344 35.8857L26.9301 36.8615C25.3564 38.3994 23.9263 40.3081 23.0993 42.5938Z" fill="url(#paint13_angular_727_23489)" stroke="#35C2C1" stroke-width="0.33793"/>
<path fill-rule="evenodd" clip-rule="evenodd" d="M19.1304 38.8682C20.2265 40.0736 20.4654 40.4985 20.0868 41.678C20.0572 41.731 20.0628 41.7373 20.0774 41.7313C20.0714 41.746 20.0777 41.7516 20.1307 41.7219C21.3103 41.3434 21.732 41.5822 22.9374 42.6784C21.8682 41.4225 21.8244 40.4318 21.9778 39.8748C22.0053 39.8257 21.9996 39.8179 21.9872 39.8215C21.9933 39.8068 21.987 39.8012 21.9339 39.8309C21.3769 39.9843 20.3862 39.9374 19.1304 38.8682Z" fill="url(#paint14_angular_727_23489)" stroke="#35C2C1" stroke-width="0.33793"/>
<path fill-rule="evenodd" clip-rule="evenodd" d="M38.9008 19.3758C39.7433 18.6229 40.9314 19.0552 43.3401 16.748L44.4459 17.7473L36.0657 26.0839L35.0701 25.1081C36.6437 23.5702 38.0738 21.6615 38.9008 19.3758Z" fill="url(#paint15_angular_727_23489)" stroke="#35C2C1" stroke-width="0.33793"/>
<path fill-rule="evenodd" clip-rule="evenodd" d="M42.8013 23.2765C43.5542 22.434 43.1219 21.246 45.4291 18.8373L44.4298 17.7314L36.0933 26.1116L37.069 27.1073C38.6069 25.5337 40.5155 24.1035 42.8013 23.2765Z" fill="url(#paint16_angular_727_23489)" stroke="#35C2C1" stroke-width="0.33793"/>
<path fill-rule="evenodd" clip-rule="evenodd" d="M39.0752 19.3062C40.1444 20.562 40.1913 21.5527 40.0379 22.1097C40.0083 22.1628 40.0139 22.1691 40.0285 22.163C40.0225 22.1777 40.0288 22.1833 40.0818 22.1536C40.6388 22.0002 41.6295 22.0471 42.8854 23.1164C41.7893 21.911 41.5504 21.4861 41.9289 20.3065C41.9586 20.2535 41.953 20.2472 41.9384 20.2532C41.9417 20.2411 41.9337 20.2354 41.8851 20.2626C40.7055 20.6411 40.2806 20.4023 39.0752 19.3062Z" fill="url(#paint17_angular_727_23489)" stroke="#35C2C1" stroke-width="0.33793"/>
<path fill-rule="evenodd" clip-rule="evenodd" d="M38.7085 42.7862C39.5509 43.5391 40.739 43.1068 43.1477 45.4139L44.2535 44.4147L35.8733 36.0781L34.8777 37.0539C36.4513 38.5917 37.8815 40.5004 38.7085 42.7862Z" fill="url(#paint18_angular_727_23489)" stroke="#35C2C1" stroke-width="0.33793"/>
<path fill-rule="evenodd" clip-rule="evenodd" d="M42.609 38.8854C43.3619 39.7279 42.9295 40.916 45.2367 43.3247L44.2374 44.4305L35.9009 36.0504L36.8766 35.0547C38.4145 36.6283 40.3232 38.0585 42.609 38.8854Z" fill="url(#paint19_angular_727_23489)" stroke="#35C2C1" stroke-width="0.33793"/>
<path fill-rule="evenodd" clip-rule="evenodd" d="M42.694 39.0469C41.4381 40.1161 40.4474 40.1599 39.8904 40.0065C39.8414 39.9791 39.8335 39.9847 39.8371 39.9971C39.8225 39.9911 39.8137 40.0005 39.8434 40.0535C39.9968 40.6105 39.953 41.5981 38.8838 42.854C40.0892 41.7578 40.511 41.5221 41.6905 41.9006C41.7435 41.9303 41.753 41.9216 41.747 41.9069C41.7593 41.9105 41.765 41.9027 41.7375 41.8536C41.359 40.6741 41.5979 40.2523 42.694 39.0469Z" fill="url(#paint20_angular_727_23489)" stroke="#35C2C1" stroke-width="0.33793"/>
<path fill-rule="evenodd" clip-rule="evenodd" d="M19.3909 23.0842C18.638 22.2417 19.0704 21.0536 16.7632 18.6449L17.7624 17.5391L26.099 25.9193L25.1232 26.9149C23.5854 25.3413 21.6767 23.9112 19.3909 23.0842Z" fill="url(#paint21_angular_727_23489)" stroke="#35C2C1" stroke-width="0.33793"/>
<path fill-rule="evenodd" clip-rule="evenodd" d="M23.2917 19.1834C22.4492 18.4305 21.2611 18.8628 18.8524 16.5557L17.7466 17.5549L26.1268 25.8915L27.1224 24.9157C25.5488 23.3778 24.1187 21.4692 23.2917 19.1834Z" fill="url(#paint22_angular_727_23489)" stroke="#35C2C1" stroke-width="0.33793"/>
<path fill-rule="evenodd" clip-rule="evenodd" d="M23.1317 19.0991C21.9263 20.1953 21.5014 20.4341 20.3219 20.0556C20.2689 20.0259 20.2626 20.0315 20.2686 20.0462C20.2539 20.0402 20.2483 20.0465 20.278 20.0995C20.6565 21.279 20.4177 21.7039 19.3215 22.9093C20.5774 21.8401 21.5681 21.7932 22.1251 21.9466C22.1781 21.9762 22.1844 21.9706 22.1784 21.956C22.1931 21.962 22.1987 21.9557 22.169 21.9027C22.0156 21.3457 22.0625 20.355 23.1317 19.0991Z" fill="url(#paint23_angular_727_23489)" stroke="#35C2C1" stroke-width="0.33793"/>
<path fill-rule="evenodd" clip-rule="evenodd" d="M33.1324 3.13981C33.1324 4.31755 32.1776 5.27228 30.9999 5.27228C29.8222 5.27228 28.8674 4.31753 28.8674 3.13981C28.8674 1.96207 29.8222 1.00732 30.9999 1.00732C32.1776 1.00732 33.1324 1.96207 33.1324 3.13981Z" fill="url(#paint24_angular_727_23489)" stroke="#35C2C1" stroke-width="0.140848"/>
<path fill-rule="evenodd" clip-rule="evenodd" d="M30.9965 1C30.185 1 29.4841 1.45168 29.1238 2.1194C30.1747 2.25142 30.9894 3.14509 30.9894 4.23145C30.9894 4.5993 30.8933 4.943 30.7289 5.24524C30.8166 5.25624 30.9058 5.25931 30.9965 5.25931C31.0871 5.25931 31.1763 5.25624 31.264 5.24524C31.0997 4.943 31.0035 4.5993 31.0035 4.23145C31.0035 3.14268 31.8219 2.24831 32.8762 2.1194C32.5159 1.4516 31.808 1 30.9965 1Z" fill="url(#paint25_angular_727_23489)" stroke="#35C2C1" stroke-width="0.316197"/>
<path fill-rule="evenodd" clip-rule="evenodd" d="M30.993 5.58999C30.993 6.76773 30.0382 7.72245 28.8605 7.72245C27.6827 7.72245 26.728 6.76771 26.728 5.58999C26.728 4.41224 27.6828 3.45752 28.8605 3.45752C30.0382 3.45752 30.993 4.41226 30.993 5.58999Z" fill="url(#paint26_angular_727_23489)" stroke="#35C2C1" stroke-width="0.140848"/>
<path fill-rule="evenodd" clip-rule="evenodd" d="M35.272 5.58999C35.272 6.76773 34.3173 7.72245 33.1395 7.72245C31.9618 7.72245 31.0071 6.76771 31.0071 5.58999C31.0071 4.41224 31.9618 3.45752 33.1395 3.45752C34.3173 3.45752 35.272 4.41226 35.272 5.58999Z" fill="url(#paint27_angular_727_23489)" stroke="#35C2C1" stroke-width="0.140848"/>
<path fill-rule="evenodd" clip-rule="evenodd" d="M33.1324 58.8605C33.1324 57.6828 32.1776 56.728 30.9999 56.728C29.8222 56.728 28.8674 57.6828 28.8674 58.8605C28.8674 60.0382 29.8222 60.993 30.9999 60.993C32.1776 60.993 33.1324 60.0382 33.1324 58.8605Z" fill="url(#paint28_angular_727_23489)" stroke="#35C2C1" stroke-width="0.140848"/>
<path fill-rule="evenodd" clip-rule="evenodd" d="M30.9965 61C30.185 61 29.4841 60.5484 29.1238 59.8806C30.1747 59.7486 30.9894 58.8549 30.9894 57.7686C30.9894 57.4007 30.8933 57.057 30.7289 56.7548C30.8166 56.7438 30.9058 56.7407 30.9965 56.7407C31.0871 56.7407 31.1763 56.7438 31.264 56.7548C31.0997 57.057 31.0035 57.4007 31.0035 57.7686C31.0035 58.8574 31.8219 59.7517 32.8762 59.8806C32.5159 60.5484 31.808 61 30.9965 61Z" fill="url(#paint29_angular_727_23489)" stroke="#35C2C1" stroke-width="0.316197"/>
<path fill-rule="evenodd" clip-rule="evenodd" d="M30.993 56.4103C30.993 55.2326 30.0382 54.2778 28.8605 54.2778C27.6827 54.2778 26.728 55.2326 26.728 56.4103C26.728 57.588 27.6828 58.5428 28.8605 58.5428C30.0382 58.5428 30.993 57.588 30.993 56.4103Z" fill="url(#paint30_angular_727_23489)" stroke="#35C2C1" stroke-width="0.140848"/>
<path fill-rule="evenodd" clip-rule="evenodd" d="M35.272 56.4103C35.272 55.2326 34.3173 54.2778 33.1395 54.2778C31.9618 54.2778 31.0071 55.2326 31.0071 56.4103C31.0071 57.588 31.9618 58.5428 33.1395 58.5428C34.3173 58.5428 35.272 57.588 35.272 56.4103Z" fill="url(#paint31_angular_727_23489)" stroke="#35C2C1" stroke-width="0.140848"/>
<path fill-rule="evenodd" clip-rule="evenodd" d="M3.13979 28.8677C4.31753 28.8677 5.27226 29.8224 5.27226 31.0002C5.27226 32.1779 4.31751 33.1326 3.13979 33.1326C1.96205 33.1326 1.00732 32.1779 1.00732 31.0002C1.00732 29.8224 1.96205 28.8677 3.13979 28.8677Z" fill="url(#paint32_angular_727_23489)" stroke="#35C2C1" stroke-width="0.140848"/>
<path fill-rule="evenodd" clip-rule="evenodd" d="M1 31.0033C1 31.8148 1.45168 32.5156 2.1194 32.876C2.25142 31.8251 3.14509 31.0103 4.23145 31.0103C4.5993 31.0103 4.94298 31.1065 5.24524 31.2708C5.25624 31.1831 5.25933 31.094 5.25933 31.0033C5.25933 30.9126 5.25626 30.8234 5.24524 30.7357C4.943 30.9 4.5993 30.9962 4.23145 30.9962C3.14268 30.9962 2.24831 30.1778 2.1194 29.1235C1.45158 29.4839 1 30.1917 1 31.0033Z" fill="url(#paint33_angular_727_23489)" stroke="#35C2C1" stroke-width="0.316197"/>
<path fill-rule="evenodd" clip-rule="evenodd" d="M5.58974 31.0073C6.76748 31.0073 7.72223 31.9621 7.72223 33.1398C7.72223 34.3176 6.76748 35.2723 5.58974 35.2723C4.412 35.2723 3.45728 34.3175 3.45728 33.1398C3.45728 31.9621 4.41202 31.0073 5.58974 31.0073Z" fill="url(#paint34_angular_727_23489)" stroke="#35C2C1" stroke-width="0.140848"/>
<path fill-rule="evenodd" clip-rule="evenodd" d="M5.58974 26.728C6.76748 26.728 7.72223 27.6828 7.72223 28.8605C7.72223 30.0383 6.76748 30.993 5.58974 30.993C4.412 30.993 3.45728 30.0382 3.45728 28.8605C3.45728 27.6828 4.41202 26.728 5.58974 26.728Z" fill="url(#paint35_angular_727_23489)" stroke="#35C2C1" stroke-width="0.140848"/>
<path fill-rule="evenodd" clip-rule="evenodd" d="M58.8602 28.8677C57.6825 28.8677 56.7278 29.8224 56.7278 31.0002C56.7278 32.1779 57.6825 33.1326 58.8602 33.1326C60.038 33.1326 60.9927 32.1779 60.9927 31.0002C60.9927 29.8224 60.038 28.8677 58.8602 28.8677Z" fill="url(#paint36_angular_727_23489)" stroke="#35C2C1" stroke-width="0.140848"/>
<path fill-rule="evenodd" clip-rule="evenodd" d="M61 31.0033C61 31.8148 60.5484 32.5156 59.8806 32.876C59.7486 31.8251 58.8549 31.0103 57.7686 31.0103C57.4007 31.0103 57.057 31.1065 56.7548 31.2708C56.7438 31.1831 56.7407 31.094 56.7407 31.0033C56.7407 30.9126 56.7438 30.8234 56.7548 30.7357C57.057 30.9 57.4007 30.9962 57.7686 30.9962C58.8574 30.9962 59.7517 30.1778 59.8806 29.1235C60.5484 29.4839 61 30.1917 61 31.0033Z" fill="url(#paint37_angular_727_23489)" stroke="#35C2C1" stroke-width="0.316197"/>
<path fill-rule="evenodd" clip-rule="evenodd" d="M56.4101 31.0073C55.2323 31.0073 54.2776 31.9621 54.2776 33.1398C54.2776 34.3176 55.2323 35.2723 56.4101 35.2723C57.5878 35.2723 58.5425 34.3175 58.5425 33.1398C58.5425 31.9621 57.5878 31.0073 56.4101 31.0073Z" fill="url(#paint38_angular_727_23489)" stroke="#35C2C1" stroke-width="0.140848"/>
<path fill-rule="evenodd" clip-rule="evenodd" d="M56.4101 26.728C55.2323 26.728 54.2776 27.6828 54.2776 28.8605C54.2776 30.0383 55.2323 30.993 56.4101 30.993C57.5878 30.993 58.5425 30.0382 58.5425 28.8605C58.5425 27.6828 57.5878 26.728 56.4101 26.728Z" fill="url(#paint39_angular_727_23489)" stroke="#35C2C1" stroke-width="0.140848"/>
<path fill-rule="evenodd" clip-rule="evenodd" d="M12.8076 9.79208C13.6404 10.6249 13.6404 11.9751 12.8076 12.8079C11.9748 13.6406 10.6246 13.6406 9.79182 12.8079C8.95904 11.9751 8.95904 10.6249 9.79182 9.79208C10.6246 8.95928 11.9748 8.95928 12.8076 9.79208Z" fill="url(#paint40_angular_727_23489)" stroke="#35C2C1" stroke-width="0.140848"/>
<path fill-rule="evenodd" clip-rule="evenodd" d="M9.78422 9.78929C9.21041 10.3631 9.03423 11.1781 9.25155 11.905C10.088 11.2553 11.296 11.3111 12.0642 12.0792C12.3243 12.3394 12.4993 12.6504 12.5969 12.9803C12.6667 12.9261 12.7319 12.8652 12.796 12.8011C12.8601 12.737 12.921 12.6718 12.9752 12.602C12.6453 12.5044 12.3343 12.3294 12.0742 12.0693C11.3043 11.2994 11.2506 10.0883 11.9049 9.25167C11.1779 9.03423 10.3581 9.21544 9.78422 9.78929Z" fill="url(#paint41_angular_727_23489)" stroke="#35C2C1" stroke-width="0.316197"/>
<path fill-rule="evenodd" clip-rule="evenodd" d="M13.0273 13.0372C13.8601 13.87 13.8601 15.2202 13.0273 16.053C12.1945 16.8857 10.8443 16.8857 10.0115 16.053C9.17877 15.2202 9.17877 13.87 10.0115 13.0372C10.8443 12.2044 12.1945 12.2044 13.0273 13.0372Z" fill="url(#paint42_angular_727_23489)" stroke="#35C2C1" stroke-width="0.140848"/>
<path fill-rule="evenodd" clip-rule="evenodd" d="M16.053 10.0113C16.8857 10.8441 16.8857 12.1943 16.053 13.0271C15.2202 13.8599 13.87 13.8599 13.0372 13.0271C12.2044 12.1943 12.2044 10.8441 13.0372 10.0113C13.87 9.17852 15.2202 9.17852 16.053 10.0113Z" fill="url(#paint43_angular_727_23489)" stroke="#35C2C1" stroke-width="0.140848"/>
<path fill-rule="evenodd" clip-rule="evenodd" d="M52.208 49.1925C51.3752 48.3597 50.025 48.3597 49.1922 49.1925C48.3594 50.0252 48.3594 51.3754 49.1922 52.2082C50.025 53.041 51.3752 53.041 52.208 52.2082C53.0408 51.3755 53.0408 50.0252 52.208 49.1925Z" fill="url(#paint44_angular_727_23489)" stroke="#35C2C1" stroke-width="0.140848"/>
<path fill-rule="evenodd" clip-rule="evenodd" d="M52.2108 52.2159C51.637 52.7897 50.822 52.9659 50.0951 52.7486C50.7448 51.9121 50.689 50.7041 49.9208 49.9359C49.6607 49.6758 49.3497 49.5008 49.0198 49.4032C49.074 49.3334 49.1349 49.2682 49.199 49.2041C49.2631 49.14 49.3283 49.0791 49.3981 49.0249C49.4957 49.3548 49.6707 49.6658 49.9308 49.926C50.7007 50.6958 51.9118 50.7495 52.7484 50.0952C52.9658 50.8222 52.7846 51.6421 52.2108 52.2159Z" fill="url(#paint45_angular_727_23489)" stroke="#35C2C1" stroke-width="0.316197"/>
<path fill-rule="evenodd" clip-rule="evenodd" d="M48.9626 48.9727C48.1298 48.14 46.7796 48.14 45.9468 48.9727C45.1141 49.8055 45.1141 51.1557 45.9468 51.9885C46.7796 52.8213 48.1298 52.8213 48.9626 51.9885C49.7954 51.1557 49.7954 49.8055 48.9626 48.9727Z" fill="url(#paint46_angular_727_23489)" stroke="#35C2C1" stroke-width="0.140848"/>
<path fill-rule="evenodd" clip-rule="evenodd" d="M51.9885 45.9468C51.1557 45.1141 49.8055 45.1141 48.9727 45.9468C48.14 46.7796 48.14 48.1298 48.9727 48.9626C49.8055 49.7954 51.1557 49.7954 51.9885 48.9626C52.8213 48.1298 52.8213 46.7796 51.9885 45.9468Z" fill="url(#paint47_angular_727_23489)" stroke="#35C2C1" stroke-width="0.140848"/>
<path fill-rule="evenodd" clip-rule="evenodd" d="M9.79183 49.1925C10.6246 48.3597 11.9748 48.3597 12.8076 49.1925C13.6404 50.0252 13.6404 51.3754 12.8076 52.2082C11.9748 53.041 10.6246 53.041 9.79183 52.2082C8.95904 51.3755 8.95904 50.0252 9.79183 49.1925Z" fill="url(#paint48_angular_727_23489)" stroke="#35C2C1" stroke-width="0.140848"/>
<path fill-rule="evenodd" clip-rule="evenodd" d="M9.7893 52.2159C10.3631 52.7897 11.1781 52.9659 11.905 52.7486C11.2553 51.9121 11.3111 50.7041 12.0793 49.9359C12.3394 49.6758 12.6504 49.5008 12.9803 49.4032C12.9261 49.3334 12.8652 49.2682 12.8011 49.2041C12.737 49.14 12.6718 49.0791 12.602 49.0249C12.5044 49.3548 12.3294 49.6658 12.0693 49.926C11.2994 50.6958 10.0883 50.7495 9.25167 50.0952C9.03423 50.8222 9.21543 51.6421 9.7893 52.2159Z" fill="url(#paint49_angular_727_23489)" stroke="#35C2C1" stroke-width="0.316197"/>
<path fill-rule="evenodd" clip-rule="evenodd" d="M13.0372 48.9727C13.87 48.14 15.2202 48.14 16.053 48.9727C16.8857 49.8055 16.8857 51.1557 16.053 51.9885C15.2202 52.8213 13.87 52.8213 13.0372 51.9885C12.2044 51.1557 12.2044 49.8055 13.0372 48.9727Z" fill="url(#paint50_angular_727_23489)" stroke="#35C2C1" stroke-width="0.140848"/>
<path fill-rule="evenodd" clip-rule="evenodd" d="M10.0116 45.9468C10.8443 45.1141 12.1945 45.1141 13.0273 45.9468C13.8601 46.7796 13.8601 48.1298 13.0273 48.9626C12.1946 49.7954 10.8444 49.7954 10.0116 48.9626C9.17876 48.1298 9.17876 46.7796 10.0116 45.9468Z" fill="url(#paint51_angular_727_23489)" stroke="#35C2C1" stroke-width="0.140848"/>
<path fill-rule="evenodd" clip-rule="evenodd" d="M49.1922 9.79208C48.3594 10.6249 48.3594 11.9751 49.1922 12.8079C50.025 13.6406 51.3752 13.6406 52.208 12.8079C53.0408 11.9751 53.0408 10.6249 52.208 9.79208C51.3752 8.95928 50.025 8.95928 49.1922 9.79208Z" fill="url(#paint52_angular_727_23489)" stroke="#35C2C1" stroke-width="0.140848"/>
<path fill-rule="evenodd" clip-rule="evenodd" d="M52.2156 9.78929C52.7895 10.3631 52.9657 11.1781 52.7483 11.905C51.9119 11.2553 50.7038 11.3111 49.9356 12.0792C49.6755 12.3394 49.5005 12.6504 49.403 12.9803C49.3332 12.9261 49.268 12.8652 49.2039 12.8011C49.1398 12.737 49.0789 12.6718 49.0247 12.602C49.3546 12.5044 49.6656 12.3294 49.9257 12.0693C50.6956 11.2994 50.7493 10.0883 50.095 9.25167C50.8219 9.03423 51.6418 9.21544 52.2156 9.78929Z" fill="url(#paint53_angular_727_23489)" stroke="#35C2C1" stroke-width="0.316197"/>
<path fill-rule="evenodd" clip-rule="evenodd" d="M48.9727 13.0372C48.14 13.87 48.14 15.2202 48.9727 16.053C49.8055 16.8857 51.1557 16.8857 51.9885 16.053C52.8213 15.2202 52.8213 13.87 51.9885 13.0372C51.1557 12.2044 49.8055 12.2044 48.9727 13.0372Z" fill="url(#paint54_angular_727_23489)" stroke="#35C2C1" stroke-width="0.140848"/>
<path fill-rule="evenodd" clip-rule="evenodd" d="M45.9468 10.0113C45.1141 10.8441 45.1141 12.1943 45.9468 13.0271C46.7796 13.8599 48.1298 13.8599 48.9626 13.0271C49.7954 12.1943 49.7954 10.8441 48.9626 10.0113C48.1298 9.17852 46.7796 9.17852 45.9468 10.0113Z" fill="url(#paint55_angular_727_23489)" stroke="#35C2C1" stroke-width="0.140848"/>
<path fill-rule="evenodd" clip-rule="evenodd" d="M30.9965 6.56006C17.5057 6.56006 6.56006 17.5057 6.56006 30.9965C6.56006 44.4874 17.5057 55.44 30.9965 55.44C44.4874 55.44 55.4401 44.4874 55.44 30.9965C55.44 17.5057 44.4874 6.56006 30.9965 6.56006ZM30.9965 12.2908C41.331 12.2908 49.7234 20.6762 49.7234 31.0106C49.7234 41.345 41.331 49.7375 30.9965 49.7375C20.6621 49.7375 12.2767 41.345 12.2767 31.0106C12.2767 20.6762 20.6621 12.2908 30.9965 12.2908Z" fill="url(#paint56_angular_727_23489)" stroke="#35C2C1" stroke-width="0.33793"/>
<path d="M51.2022 31.0001C51.2022 42.1574 42.1574 51.2022 31 51.2022C19.8427 51.2022 10.7979 42.1574 10.7979 31.0001C10.7979 19.8427 19.8427 10.7979 31.0001 10.7979C42.1574 10.7979 51.2022 19.8427 51.2022 31.0001Z" stroke="#35C2C1" stroke-width="0.040844"/>
<path fill-rule="evenodd" clip-rule="evenodd" d="M38.5239 31C38.5255 35.1553 35.1583 38.5252 31.0029 38.5268C26.8476 38.5284 23.4777 35.1611 23.4761 31.0058V31C23.4745 26.8446 26.8418 23.4748 30.9971 23.4731C35.1525 23.4715 38.5223 26.8388 38.5239 30.9942V31Z" fill="url(#paint57_angular_727_23489)" stroke="#35C2C1" stroke-width="0.107991"/>
<path fill-rule="evenodd" clip-rule="evenodd" d="M36 31C36.0011 33.7604 33.7633 35.9989 31.0019 36C28.2405 36.0011 26.0011 33.7642 26 31.0039V31C25.9989 28.2396 28.2367 26.0011 30.9981 26C33.7595 25.9989 35.9989 28.2358 36 30.9961V31Z" stroke="#35C2C1" stroke-width="0.107991"/>
<defs>
<radialGradient id="paint0_angular_727_23489" cx="0" cy="0" r="1" gradientUnits="userSpaceOnUse" gradientTransform="translate(18.0494 29.4907) rotate(90) scale(1.38475 5.91731)">
<stop stop-color="#004761"/>
<stop offset="1" stop-color="#076E94"/>
</radialGradient>
<radialGradient id="paint1_angular_727_23489" cx="0" cy="0" r="1" gradientUnits="userSpaceOnUse" gradientTransform="translate(18.0494 32.2373) rotate(90) scale(1.38475 5.91731)">
<stop stop-color="#004761"/>
<stop offset="1" stop-color="#076E94"/>
</radialGradient>
<radialGradient id="paint2_angular_727_23489" cx="0" cy="0" r="1" gradientUnits="userSpaceOnUse" gradientTransform="translate(17.0276 30.8745) rotate(90) scale(2.69381 1.35816)">
<stop stop-color="#004761"/>
<stop offset="1" stop-color="#076E94"/>
</radialGradient>
<radialGradient id="paint3_angular_727_23489" cx="0" cy="0" r="1" gradientUnits="userSpaceOnUse" gradientTransform="translate(43.9507 29.7627) rotate(90) scale(1.38475 5.9173)">
<stop stop-color="#004761"/>
<stop offset="1" stop-color="#076E94"/>
</radialGradient>
<radialGradient id="paint4_angular_727_23489" cx="0" cy="0" r="1" gradientUnits="userSpaceOnUse" gradientTransform="translate(43.9507 32.5093) rotate(90) scale(1.38475 5.9173)">
<stop stop-color="#004761"/>
<stop offset="1" stop-color="#076E94"/>
</radialGradient>
<radialGradient id="paint5_angular_727_23489" cx="0" cy="0" r="1" gradientUnits="userSpaceOnUse" gradientTransform="translate(44.972 31.1459) rotate(90) scale(2.69225 1.35649)">
<stop stop-color="#004761"/>
<stop offset="1" stop-color="#076E94"/>
</radialGradient>
<radialGradient id="paint6_angular_727_23489" cx="0" cy="0" r="1" gradientUnits="userSpaceOnUse" gradientTransform="translate(29.4907 43.9505) rotate(90) scale(5.91731 1.38475)">
<stop stop-color="#35C2C1"/>
<stop offset="1" stop-color="#126F6F"/>
</radialGradient>
<radialGradient id="paint7_angular_727_23489" cx="0" cy="0" r="1" gradientUnits="userSpaceOnUse" gradientTransform="translate(32.2375 43.9505) rotate(90) scale(5.91731 1.38475)">
<stop stop-color="#35C2C1"/>
<stop offset="1" stop-color="#126F6F"/>
</radialGradient>
<radialGradient id="paint8_angular_727_23489" cx="0" cy="0" r="1" gradientUnits="userSpaceOnUse" gradientTransform="translate(30.8745 44.9722) rotate(90) scale(1.35847 2.69381)">
<stop stop-color="#35C2C1"/>
<stop offset="1" stop-color="#126F6F"/>
</radialGradient>
<radialGradient id="paint9_angular_727_23489" cx="0" cy="0" r="1" gradientUnits="userSpaceOnUse" gradientTransform="translate(29.7624 18.0491) rotate(90) scale(5.91731 1.38475)">
<stop stop-color="#35C2C1"/>
<stop offset="1" stop-color="#126F6F"/>
</radialGradient>
<radialGradient id="paint10_angular_727_23489" cx="0" cy="0" r="1" gradientUnits="userSpaceOnUse" gradientTransform="translate(32.5093 18.0491) rotate(90) scale(5.91731 1.38475)">
<stop stop-color="#35C2C1"/>
<stop offset="1" stop-color="#126F6F"/>
</radialGradient>
<radialGradient id="paint11_angular_727_23489" cx="0" cy="0" r="1" gradientUnits="userSpaceOnUse" gradientTransform="translate(31.1459 17.0276) rotate(90) scale(1.35816 2.69225)">
<stop stop-color="#35C2C1"/>
<stop offset="1" stop-color="#126F6F"/>
</radialGradient>
<radialGradient id="paint12_angular_727_23489" cx="0" cy="0" r="1" gradientUnits="userSpaceOnUse" gradientTransform="translate(21.2387 39.5502) rotate(90) scale(4.68793 4.66791)">
<stop stop-color="#004761"/>
<stop offset="1" stop-color="#076E94"/>
</radialGradient>
<radialGradient id="paint13_angular_727_23489" cx="0" cy="0" r="1" gradientUnits="userSpaceOnUse" gradientTransform="translate(22.2421 40.5537) rotate(90) scale(4.66791 4.68793)">
<stop stop-color="#004761"/>
<stop offset="1" stop-color="#076E94"/>
</radialGradient>
<radialGradient id="paint14_angular_727_23489" cx="0" cy="0" r="1" gradientUnits="userSpaceOnUse" gradientTransform="translate(21.0339 40.7733) rotate(90) scale(1.9051 1.90353)">
<stop stop-color="#004761"/>
<stop offset="1" stop-color="#076E94"/>
</radialGradient>
<radialGradient id="paint15_angular_727_23489" cx="0" cy="0" r="1" gradientUnits="userSpaceOnUse" gradientTransform="translate(39.758 21.4159) rotate(90) scale(4.6679 4.68793)">
<stop stop-color="#35C2C1"/>
<stop offset="1" stop-color="#126F6F"/>
</radialGradient>
<radialGradient id="paint16_angular_727_23489" cx="0" cy="0" r="1" gradientUnits="userSpaceOnUse" gradientTransform="translate(40.7612 22.4194) rotate(90) scale(4.68793 4.6679)">
<stop stop-color="#35C2C1"/>
<stop offset="1" stop-color="#126F6F"/>
</radialGradient>
<radialGradient id="paint17_angular_727_23489" cx="0" cy="0" r="1" gradientUnits="userSpaceOnUse" gradientTransform="translate(40.9803 21.2113) rotate(90) scale(1.90511)">
<stop stop-color="#35C2C1"/>
<stop offset="1" stop-color="#126F6F"/>
</radialGradient>
<radialGradient id="paint18_angular_727_23489" cx="0" cy="0" r="1" gradientUnits="userSpaceOnUse" gradientTransform="translate(39.5656 40.746) rotate(90) scale(4.6679 4.68793)">
<stop stop-color="#35C2C1"/>
<stop offset="1" stop-color="#126F6F"/>
</radialGradient>
<radialGradient id="paint19_angular_727_23489" cx="0" cy="0" r="1" gradientUnits="userSpaceOnUse" gradientTransform="translate(40.5688 39.7426) rotate(90) scale(4.68793 4.66791)">
<stop stop-color="#35C2C1"/>
<stop offset="1" stop-color="#126F6F"/>
</radialGradient>
<radialGradient id="paint20_angular_727_23489" cx="0" cy="0" r="1" gradientUnits="userSpaceOnUse" gradientTransform="translate(40.7889 40.9504) rotate(90) scale(1.90354 1.90511)">
<stop stop-color="#35C2C1"/>
<stop offset="1" stop-color="#126F6F"/>
</radialGradient>
<radialGradient id="paint21_angular_727_23489" cx="0" cy="0" r="1" gradientUnits="userSpaceOnUse" gradientTransform="translate(21.4311 22.227) rotate(90) scale(4.68793 4.6679)">
<stop stop-color="#004761"/>
<stop offset="1" stop-color="#076E94"/>
</radialGradient>
<radialGradient id="paint22_angular_727_23489" cx="0" cy="0" r="1" gradientUnits="userSpaceOnUse" gradientTransform="translate(22.4345 21.2236) rotate(90) scale(4.6679 4.68793)">
<stop stop-color="#004761"/>
<stop offset="1" stop-color="#076E94"/>
</radialGradient>
<radialGradient id="paint23_angular_727_23489" cx="0" cy="0" r="1" gradientUnits="userSpaceOnUse" gradientTransform="translate(21.2266 21.0042) rotate(90) scale(1.9051)">
<stop stop-color="#004761"/>
<stop offset="1" stop-color="#076E94"/>
</radialGradient>
<radialGradient id="paint24_angular_727_23489" cx="0" cy="0" r="1" gradientUnits="userSpaceOnUse" gradientTransform="translate(30.9999 3.1398) rotate(90) scale(2.13248)">
<stop stop-color="#35C2C1"/>
<stop offset="1" stop-color="#126F6F"/>
</radialGradient>
<radialGradient id="paint25_angular_727_23489" cx="0" cy="0" r="1" gradientUnits="userSpaceOnUse" gradientTransform="translate(31 3.12966) rotate(90) scale(2.12966 1.87621)">
<stop stop-color="#35C2C1"/>
<stop offset="1" stop-color="#126F6F"/>
</radialGradient>
<radialGradient id="paint26_angular_727_23489" cx="0" cy="0" r="1" gradientUnits="userSpaceOnUse" gradientTransform="translate(28.8605 5.58999) rotate(90) scale(2.13247)">
<stop stop-color="#35C2C1"/>
<stop offset="1" stop-color="#126F6F"/>
</radialGradient>
<radialGradient id="paint27_angular_727_23489" cx="0" cy="0" r="1" gradientUnits="userSpaceOnUse" gradientTransform="translate(33.1396 5.58999) rotate(90) scale(2.13247 2.13248)">
<stop stop-color="#35C2C1"/>
<stop offset="1" stop-color="#126F6F"/>
</radialGradient>
<radialGradient id="paint28_angular_727_23489" cx="0" cy="0" r="1" gradientUnits="userSpaceOnUse" gradientTransform="translate(30.9999 58.8605) rotate(90) scale(2.13248)">
<stop stop-color="#35C2C1"/>
<stop offset="1" stop-color="#126F6F"/>
</radialGradient>
<radialGradient id="paint29_angular_727_23489" cx="0" cy="0" r="1" gradientUnits="userSpaceOnUse" gradientTransform="translate(31 58.8704) rotate(90) scale(2.12965 1.87621)">
<stop stop-color="#35C2C1"/>
<stop offset="1" stop-color="#126F6F"/>
</radialGradient>
<radialGradient id="paint30_angular_727_23489" cx="0" cy="0" r="1" gradientUnits="userSpaceOnUse" gradientTransform="translate(28.8605 56.4103) rotate(90) scale(2.13247)">
<stop stop-color="#35C2C1"/>
<stop offset="1" stop-color="#126F6F"/>
</radialGradient>
<radialGradient id="paint31_angular_727_23489" cx="0" cy="0" r="1" gradientUnits="userSpaceOnUse" gradientTransform="translate(33.1396 56.4103) rotate(90) scale(2.13247 2.13248)">
<stop stop-color="#35C2C1"/>
<stop offset="1" stop-color="#126F6F"/>
</radialGradient>
<radialGradient id="paint32_angular_727_23489" cx="0" cy="0" r="1" gradientUnits="userSpaceOnUse" gradientTransform="translate(3.13979 31.0002) rotate(90) scale(2.13248 2.13247)">
<stop stop-color="#004761"/>
<stop offset="1" stop-color="#076E94"/>
</radialGradient>
<radialGradient id="paint33_angular_727_23489" cx="0" cy="0" r="1" gradientUnits="userSpaceOnUse" gradientTransform="translate(3.12967 30.9998) rotate(90) scale(1.87622 2.12967)">
<stop stop-color="#004761"/>
<stop offset="1" stop-color="#076E94"/>
</radialGradient>
<radialGradient id="paint34_angular_727_23489" cx="0" cy="0" r="1" gradientUnits="userSpaceOnUse" gradientTransform="translate(5.58975 33.1398) rotate(90) scale(2.13248)">
<stop stop-color="#004761"/>
<stop offset="1" stop-color="#076E94"/>
</radialGradient>
<radialGradient id="paint35_angular_727_23489" cx="0" cy="0" r="1" gradientUnits="userSpaceOnUse" gradientTransform="translate(5.58975 28.8605) rotate(90) scale(2.13248)">
<stop stop-color="#004761"/>
<stop offset="1" stop-color="#076E94"/>
</radialGradient>
<radialGradient id="paint36_angular_727_23489" cx="0" cy="0" r="1" gradientUnits="userSpaceOnUse" gradientTransform="translate(58.8602 31.0002) rotate(90) scale(2.13248 2.13247)">
<stop stop-color="#004761"/>
<stop offset="1" stop-color="#076E94"/>
</radialGradient>
<radialGradient id="paint37_angular_727_23489" cx="0" cy="0" r="1" gradientUnits="userSpaceOnUse" gradientTransform="translate(58.8704 30.9998) rotate(90) scale(1.87622 2.12966)">
<stop stop-color="#004761"/>
<stop offset="1" stop-color="#076E94"/>
</radialGradient>
<radialGradient id="paint38_angular_727_23489" cx="0" cy="0" r="1" gradientUnits="userSpaceOnUse" gradientTransform="translate(56.4101 33.1398) rotate(90) scale(2.13248)">
<stop stop-color="#004761"/>
<stop offset="1" stop-color="#076E94"/>
</radialGradient>
<radialGradient id="paint39_angular_727_23489" cx="0" cy="0" r="1" gradientUnits="userSpaceOnUse" gradientTransform="translate(56.4101 28.8605) rotate(90) scale(2.13248)">
<stop stop-color="#004761"/>
<stop offset="1" stop-color="#076E94"/>
</radialGradient>
<radialGradient id="paint40_angular_727_23489" cx="0" cy="0" r="1" gradientUnits="userSpaceOnUse" gradientTransform="translate(11.2997 11.3) rotate(90) scale(2.13248 2.13247)">
<stop stop-color="#004761"/>
<stop offset="1" stop-color="#076E94"/>
</radialGradient>
<radialGradient id="paint41_angular_727_23489" cx="0" cy="0" r="1" gradientUnits="userSpaceOnUse" gradientTransform="translate(11.0684 11.0715) rotate(90) scale(1.90885 1.9068)">
<stop stop-color="#004761"/>
<stop offset="1" stop-color="#076E94"/>
</radialGradient>
<radialGradient id="paint42_angular_727_23489" cx="0" cy="0" r="1" gradientUnits="userSpaceOnUse" gradientTransform="translate(11.5194 14.5451) rotate(90) scale(2.13247)">
<stop stop-color="#004761"/>
<stop offset="1" stop-color="#076E94"/>
</radialGradient>
<radialGradient id="paint43_angular_727_23489" cx="0" cy="0" r="1" gradientUnits="userSpaceOnUse" gradientTransform="translate(14.5451 11.5192) rotate(90) scale(2.13248)">
<stop stop-color="#004761"/>
<stop offset="1" stop-color="#076E94"/>
</radialGradient>
<radialGradient id="paint44_angular_727_23489" cx="0" cy="0" r="1" gradientUnits="userSpaceOnUse" gradientTransform="translate(50.7001 50.7003) rotate(90) scale(2.13247 2.13249)">
<stop stop-color="#35C2C1"/>
<stop offset="1" stop-color="#126F6F"/>
</radialGradient>
<radialGradient id="paint45_angular_727_23489" cx="0" cy="0" r="1" gradientUnits="userSpaceOnUse" gradientTransform="translate(50.9286 50.9317) rotate(90) scale(1.90681 1.90885)">
<stop stop-color="#35C2C1"/>
<stop offset="1" stop-color="#126F6F"/>
</radialGradient>
<radialGradient id="paint46_angular_727_23489" cx="0" cy="0" r="1" gradientUnits="userSpaceOnUse" gradientTransform="translate(47.4547 50.4806) rotate(90) scale(2.13247)">
<stop stop-color="#35C2C1"/>
<stop offset="1" stop-color="#126F6F"/>
</radialGradient>
<radialGradient id="paint47_angular_727_23489" cx="0" cy="0" r="1" gradientUnits="userSpaceOnUse" gradientTransform="translate(50.4806 47.4547) rotate(90) scale(2.13247)">
<stop stop-color="#35C2C1"/>
<stop offset="1" stop-color="#126F6F"/>
</radialGradient>
<radialGradient id="paint48_angular_727_23489" cx="0" cy="0" r="1" gradientUnits="userSpaceOnUse" gradientTransform="translate(11.2997 50.7003) rotate(90) scale(2.13247 2.13248)">
<stop stop-color="#004761"/>
<stop offset="1" stop-color="#076E94"/>
</radialGradient>
<radialGradient id="paint49_angular_727_23489" cx="0" cy="0" r="1" gradientUnits="userSpaceOnUse" gradientTransform="translate(11.0715 50.9317) rotate(90) scale(1.90681 1.90885)">
<stop stop-color="#004761"/>
<stop offset="1" stop-color="#076E94"/>
</radialGradient>
<radialGradient id="paint50_angular_727_23489" cx="0" cy="0" r="1" gradientUnits="userSpaceOnUse" gradientTransform="translate(14.5451 50.4806) rotate(90) scale(2.13247)">
<stop stop-color="#004761"/>
<stop offset="1" stop-color="#076E94"/>
</radialGradient>
<radialGradient id="paint51_angular_727_23489" cx="0" cy="0" r="1" gradientUnits="userSpaceOnUse" gradientTransform="translate(11.5194 47.4547) rotate(90) scale(2.13247 2.13248)">
<stop stop-color="#004761"/>
<stop offset="1" stop-color="#076E94"/>
</radialGradient>
<radialGradient id="paint52_angular_727_23489" cx="0" cy="0" r="1" gradientUnits="userSpaceOnUse" gradientTransform="translate(50.7001 11.3) rotate(90) scale(2.13248 2.13247)">
<stop stop-color="#35C2C1"/>
<stop offset="1" stop-color="#126F6F"/>
</radialGradient>
<radialGradient id="paint53_angular_727_23489" cx="0" cy="0" r="1" gradientUnits="userSpaceOnUse" gradientTransform="translate(50.9315 11.0715) rotate(90) scale(1.90885 1.9068)">
<stop stop-color="#35C2C1"/>
<stop offset="1" stop-color="#126F6F"/>
</radialGradient>
<radialGradient id="paint54_angular_727_23489" cx="0" cy="0" r="1" gradientUnits="userSpaceOnUse" gradientTransform="translate(50.4806 14.5451) rotate(90) scale(2.13247 2.13247)">
<stop stop-color="#35C2C1"/>
<stop offset="1" stop-color="#126F6F"/>
</radialGradient>
<radialGradient id="paint55_angular_727_23489" cx="0" cy="0" r="1" gradientUnits="userSpaceOnUse" gradientTransform="translate(47.4547 11.5192) rotate(90) scale(2.13248 2.13247)">
<stop stop-color="#35C2C1"/>
<stop offset="1" stop-color="#126F6F"/>
</radialGradient>
<radialGradient id="paint56_angular_727_23489" cx="0" cy="0" r="1" gradientUnits="userSpaceOnUse" gradientTransform="translate(31.0001 31.0001) rotate(90) scale(24.44)">
<stop stop-color="#004761"/>
<stop offset="1" stop-color="#076E94"/>
</radialGradient>
<radialGradient id="paint57_angular_727_23489" cx="0" cy="0" r="1" gradientUnits="userSpaceOnUse" gradientTransform="translate(31 31) rotate(90) scale(7.52683 7.52393)">
<stop stop-color="#004761"/>
<stop offset="1" stop-color="#076E94"/>
</radialGradient>
</defs>
</svg>
