<svg width="21" height="24" viewBox="0 0 21 24" fill="none" xmlns="http://www.w3.org/2000/svg">
<path d="M20.6716 8.81829L11.5292 0.402319C10.9415 -0.134106 10.0432 -0.134106 9.4554 0.402319L0.302865 8.81829C0.110366 8.97485 0 9.20842 0 9.45609V18.8258C0 21.241 2.10595 23.2018 4.69174 23.2018H16.2928C18.8774 23.1954 21 21.2332 21 18.8258V9.45609C20.9936 9.20457 20.8731 8.96971 20.6716 8.81829ZM19.3575 18.8257C19.3575 20.3335 17.9907 21.5591 16.3083 21.5591H4.68129C2.99885 21.5591 1.63213 20.3335 1.63213 18.8257L1.63342 9.82063L10.487 1.67932L19.3573 9.82063L19.3575 18.8257Z" fill="white"/>
</svg>
