<svg width="24" height="20" viewBox="0 0 24 20" fill="none" xmlns="http://www.w3.org/2000/svg">
<path d="M10.2656 11.5994L12.2576 12.9489L14.2794 11.5994C13.5973 10.8895 11.8397 9.89566 10.2656 11.5994Z" fill="white"/>
<path d="M12.2557 13.4955L9.57471 11.6792L9.9327 11.2919C10.5912 10.5789 11.3441 10.2134 12.1702 10.2052C13.1948 10.1949 14.0992 10.7567 14.6072 11.2852L14.9824 11.6759L12.2557 13.4955ZM10.9937 11.545L12.2596 12.4025L13.5256 11.5577C13.1634 11.3125 12.6929 11.112 12.1968 11.112C12.1907 11.112 12.1847 11.1123 12.1789 11.1123C11.7632 11.1162 11.3662 11.2617 10.9937 11.545Z" fill="white"/>
<path d="M12.4958 20C5.78253 20 2.95306 17.7961 1.76207 15.9472C0.542963 14.055 0.47463 11.6319 1.56372 9.10361C1.40408 7.77596 0.880395 2.15844 3.28233 1.06421C4.71883 0.409902 6.21823 1.73695 7.0225 2.59021C10.4237 1.01795 14.5524 1.52137 17.3181 2.75771C18.6391 1.08295 19.8767 0.475816 21.0017 0.951123C23.0357 1.81043 23.4369 6.13596 22.9604 9.07731C24.1067 11.6183 24.0683 14.0726 22.8461 16.0101C21.6978 17.8303 18.9702 20 12.4958 20ZM4.0863 2.40547C4.01736 2.40547 3.9584 2.41756 3.90912 2.43994C3.04377 2.83421 2.66068 5.95364 3.08942 9.1154L3.11875 9.33099L3.02865 9.52933C2.34925 11.0263 1.79866 13.2124 3.03319 15.1284C4.42917 17.2951 7.78959 18.4882 12.4961 18.4882C17.075 18.4882 20.212 17.3522 21.5674 15.2037C22.538 13.6644 22.5117 11.6416 21.4931 9.50696L21.3872 9.28593L21.4314 9.04526C21.9811 6.04737 21.3237 2.72839 20.413 2.34379C20.0544 2.1914 19.2759 2.58628 18.1659 4.14735L17.7837 4.68464L17.1996 4.37926C14.5842 3.01139 10.3116 2.50706 7.20633 4.18817L6.676 4.47541L6.2784 4.02187C5.2277 2.82363 4.49025 2.40547 4.0863 2.40547Z" fill="white"/>
<path d="M16.7619 11.9764L15.9849 11.5087C16.4251 10.7767 17.8879 9.70693 20.2735 10.8976L19.8684 11.7091C18.0769 10.8148 17.0528 11.4927 16.7619 11.9764Z" fill="white"/>
<path d="M7.73706 11.9767C7.44649 11.4929 6.42331 10.8153 4.63123 11.7094L4.22607 10.8979C6.61138 9.70658 8.07449 10.7769 8.51472 11.5092L7.73706 11.9767Z" fill="white"/>
<path d="M14.0101 14.7092C13.9348 14.7092 13.8595 14.7055 13.7836 14.6983C12.9264 14.616 12.2213 14.0645 11.8467 13.5759L12.5669 13.0244C12.8133 13.3458 13.3025 13.741 13.8704 13.7957C14.313 13.8378 14.7536 13.6672 15.1811 13.2884L15.7828 13.9669C15.2261 14.4603 14.6308 14.7092 14.0101 14.7092Z" fill="white"/>
<path d="M10.4854 14.7092C9.86439 14.7092 9.26904 14.4603 8.7124 13.9669L9.31409 13.2884C9.74193 13.6672 10.1834 13.8369 10.6248 13.7957C11.1926 13.741 11.6819 13.3461 11.9283 13.0244L12.6485 13.5759C12.2742 14.0645 11.5688 14.6157 10.7119 14.6983C10.6363 14.7055 10.5607 14.7092 10.4854 14.7092Z" fill="white"/>
</svg>
