<svg width="18" height="18" viewBox="0 0 18 18" fill="none" xmlns="http://www.w3.org/2000/svg">
<path d="M16.5 8.58335C16.5028 9.68323 16.2459 10.7682 15.75 11.75C15.162 12.9265 14.2581 13.916 13.1395 14.6077C12.0209 15.2995 10.7319 15.6662 9.41665 15.6667C8.31677 15.6695 7.23175 15.4126 6.24999 14.9167L1.5 16.5L3.08333 11.75C2.58744 10.7682 2.33046 9.68323 2.33333 8.58335C2.33384 7.26815 2.70051 5.97906 3.39226 4.86048C4.08402 3.74189 5.07354 2.83799 6.24999 2.25002C7.23175 1.75413 8.31677 1.49716 9.41665 1.50002H9.83332C11.5703 1.59585 13.2109 2.32899 14.4409 3.55907C15.671 4.78915 16.4042 6.42973 16.5 8.16668V8.58335Z" fill="#004761" stroke="#004761" stroke-width="1.5" stroke-linecap="round" stroke-linejoin="round"/>
</svg>
