<svg width="10" height="10" viewBox="0 0 10 10" fill="none" xmlns="http://www.w3.org/2000/svg">
<path d="M9.09143 4.6477C9.09305 5.28545 8.94752 5.91458 8.66667 6.48384C8.33367 7.16599 7.82175 7.73974 7.18824 8.14085C6.55473 8.54195 5.82465 8.75456 5.07979 8.75485C4.45687 8.75652 3.84237 8.60751 3.28635 8.31998L0.596191 9.23805L1.49291 6.48384C1.21206 5.91458 1.06652 5.28545 1.06815 4.6477C1.06844 3.8851 1.2761 3.13764 1.66787 2.48905C2.05965 1.84046 2.62007 1.31634 3.28635 0.975416C3.84237 0.687882 4.45687 0.538878 5.07979 0.540541H5.31577C6.29949 0.596105 7.22863 1.0212 7.92529 1.73445C8.62194 2.44769 9.03716 3.39895 9.09143 4.4061V4.6477Z" fill="#004761" stroke="#004761" stroke-width="0.849525" stroke-linecap="round" stroke-linejoin="round"/>
</svg>
