<svg width="15" height="15" viewBox="0 0 15 15" fill="none" xmlns="http://www.w3.org/2000/svg">
<path d="M1.39386 10.8083C0.52732 11.6749 0.52732 13.0798 1.39386 13.9463C2.26041 14.8129 3.66535 14.8129 4.53189 13.9463L7.66992 10.8083L10.808 13.9463C11.6745 14.8129 13.0794 14.8129 13.946 13.9463C14.8125 13.0798 14.8125 11.6749 13.946 10.8083L10.808 7.67028L13.946 4.53225C14.8125 3.66571 14.8125 2.26077 13.946 1.39422C13.0794 0.52768 11.6745 0.52768 10.808 1.39422L7.66992 4.53225L4.53189 1.39422C3.66535 0.527679 2.26041 0.52768 1.39386 1.39422C0.527321 2.26076 0.527321 3.66571 1.39386 4.53225L4.53189 7.67028L1.39386 10.8083Z" fill="white"/>
</svg>
