<svg width="15" height="10" viewBox="0 0 15 10" fill="none" xmlns="http://www.w3.org/2000/svg">
<path d="M7.15824 0.570685C3.00017 0.724421 0.203032 4.76266 0.0863747 4.93442C-0.00665615 5.0716 -0.00665615 5.25135 0.0863747 5.38853C0.203058 5.5604 2.99876 9.59847 7.15824 9.75227C7.23866 9.75463 7.31987 9.75621 7.40028 9.75621C9.92313 9.75621 12.3632 8.29531 14.6542 5.41064C14.7709 5.26321 14.7709 5.05508 14.6542 4.90843C12.2882 1.9355 9.7695 0.476027 7.15824 0.570685ZM7.18978 8.94657C3.97627 8.82989 1.56058 5.99402 0.918968 5.16228C1.56072 4.33053 3.97627 1.49304 7.18978 1.378C9.45248 1.29758 11.6829 2.56846 13.8178 5.16228C11.6853 7.75618 9.45248 9.0277 7.18978 8.94657Z" fill="#004761"/>
<path d="M7.4142 2.33939C7.13589 2.33939 6.86706 2.38197 6.61318 2.4545C6.78505 2.68628 6.88754 2.97326 6.88754 3.28389C6.88754 4.05651 6.26155 4.6825 5.48893 4.6825C5.1783 4.6825 4.89134 4.57922 4.65954 4.40814C4.58464 4.66278 4.54443 4.93083 4.54443 5.20915C4.54443 6.79383 5.8303 8.07895 7.41423 8.07895C8.99891 8.07895 10.284 6.79308 10.284 5.20915C10.284 3.62448 8.99813 2.33939 7.4142 2.33939Z" fill="#004761"/>
</svg>
