<svg width="20" height="20" viewBox="0 0 20 20" fill="none" xmlns="http://www.w3.org/2000/svg">
<path d="M13.6066 2C16.4426 2 18.3327 4.02406 18.3327 6.9284V13.7374C18.3327 16.6419 16.4425 18.6667 13.6066 18.6667H6.38378C3.54915 18.6667 1.66602 16.6435 1.66602 13.7374V6.9284C1.66602 4.02549 3.55465 2 6.38378 2H13.6066ZM13.6066 3.2532H6.38378C4.26656 3.2532 2.91852 4.69892 2.91852 6.9284V13.7374C2.91852 15.9706 4.26159 17.4135 6.38378 17.4135H13.6066C15.7309 17.4135 17.0802 15.9682 17.0802 13.7374V6.9284C17.0802 4.69787 15.7311 3.2532 13.6066 3.2532ZM14.2001 10.4863L14.3087 10.5905L16.0422 12.3801C16.2829 12.6286 16.2767 13.0253 16.0283 13.2661C15.8025 13.4851 15.4543 13.4998 15.212 13.314L15.1428 13.2523L13.4094 11.4628C13.1074 11.1511 12.6164 11.1482 12.31 11.4391L12.2427 11.5114L10.3818 13.776C9.72352 14.5783 8.53917 14.6642 7.77289 13.9919L7.67107 13.8956L6.9284 13.1373C6.73332 12.9348 6.42221 12.9156 6.20556 13.0791L6.13714 13.1403L4.86042 14.4879C4.62247 14.7391 4.22609 14.7497 3.97508 14.5116C3.74688 14.2952 3.71738 13.9477 3.89267 13.6976L3.95141 13.6258L5.22786 12.2784C5.89985 11.5683 7.00645 11.5304 7.72228 12.1639L7.82662 12.264L8.56555 13.0183C8.78155 13.2388 9.12775 13.2444 9.35097 13.0461L9.41399 12.9805L11.2751 10.7157C12.0145 9.8152 13.346 9.72405 14.2001 10.4863ZM7.14322 5.8677C8.29737 5.8677 9.23407 6.80491 9.23407 7.9597C9.23407 9.11449 8.29737 10.0517 7.14322 10.0517C5.98912 10.0517 5.05321 9.11454 5.05321 7.9597C5.05321 6.80486 5.98912 5.8677 7.14322 5.8677ZM7.14322 7.12089C6.68108 7.12089 6.30571 7.49676 6.30571 7.9597C6.30571 8.42264 6.68108 8.7985 7.14322 8.7985C7.60563 8.7985 7.98156 8.42237 7.98156 7.9597C7.98156 7.49703 7.60563 7.12089 7.14322 7.12089Z" fill="white"/>
</svg>
