<svg width="20" height="18" viewBox="0 0 20 18" fill="none" xmlns="http://www.w3.org/2000/svg">
<path fill-rule="evenodd" clip-rule="evenodd" d="M9.99283 3.06068L10.6937 2.30772C12.629 0.228481 15.7668 0.228481 17.7021 2.30772C19.6375 4.38696 19.6375 7.75808 17.7021 9.83732L11.3945 16.614C10.6204 17.4457 9.36527 17.4457 8.59114 16.614L2.28353 9.83732C0.348198 7.75808 0.348199 4.38696 2.28353 2.30772C4.21886 0.22848 7.35666 0.228481 9.29199 2.30772L9.99283 3.06068ZM14.5732 2.80947C14.1938 2.80947 13.8862 3.11708 13.8862 3.49653C13.8862 3.87599 14.1938 4.18359 14.5732 4.18359C15.2057 4.18359 15.7183 4.69627 15.7183 5.32869C15.7183 5.70815 16.0259 6.01575 16.4054 6.01575C16.7848 6.01575 17.0925 5.70815 17.0925 5.32869C17.0925 3.93737 15.9646 2.80947 14.5732 2.80947Z" fill="#DC1111"/>
</svg>
