<svg width="12" height="10" viewBox="0 0 12 10" fill="none" xmlns="http://www.w3.org/2000/svg">
<path d="M8.89927 0H8.89745C8.51535 0 8.12717 0.0549906 7.75176 0.159313C7.11473 0.336625 6.51116 0.658343 5.93186 1.04841C5.36114 0.665527 4.76549 0.351005 4.13813 0.176272C3.76211 0.0719442 3.37332 0.0169588 2.99062 0.0169588H2.99001C1.98974 0.0169588 1.02962 0.395211 0.478388 1.22521C-0.266953 2.34711 -0.229229 4.24202 1.20121 5.87778C2.20573 7.02539 3.90395 8.05072 5.77306 9.02563V9.02614C5.8187 9.04875 5.87224 9.0616 5.92882 9.0616C5.99088 9.0616 6.0499 9.04618 6.09796 9.01895L6.09857 9.01843C7.97438 8.04042 9.68104 7.01258 10.6887 5.86085C12.1197 4.22495 12.1574 2.32961 11.4121 1.20775C10.8602 0.377754 9.89958 0 8.89927 0Z" fill="#DC1111"/>
</svg>
