<svg width="4" height="22" viewBox="0 0 4 22" fill="none" xmlns="http://www.w3.org/2000/svg">
<path d="M3.99961 10.5127C3.99961 11.6164 3.10346 12.5125 1.9998 12.5125C0.896145 12.5125 0 11.6164 0 10.5127C0 9.40908 0.896145 8.51294 1.9998 8.51294C3.10346 8.51294 3.99961 9.40908 3.99961 10.5127Z" fill="white"/>
<path d="M3.99961 1.9998C3.99961 3.1035 3.10346 3.99841 1.9998 3.99841C0.896145 3.99841 0 3.10346 0 1.9998C0 0.894917 0.896145 0 1.9998 0C3.10346 0 3.99961 0.894948 3.99961 1.9998Z" fill="white"/>
<path d="M1.9998 17.0266C0.897343 17.0266 0 17.9204 0 19.0264C0 20.1289 0.89375 21.0262 1.9998 21.0262C3.10586 21.0262 3.99961 20.1325 3.99961 19.0264C3.99961 17.9227 3.10227 17.0266 1.9998 17.0266Z" fill="white"/>
</svg>
