<svg width="18" height="20" viewBox="0 0 18 20" fill="none" xmlns="http://www.w3.org/2000/svg">
<path d="M16.9645 16.3218C16.1354 15.8114 15.6202 14.8896 15.6202 13.9159V9.62025C15.6202 7.75367 14.8934 5.99899 13.5737 4.67949C12.8549 3.96101 11.9858 3.40658 11.038 3.05873V2.40506C11.038 1.76253 10.7878 1.15848 10.3334 0.704304C9.87897 0.250127 9.27518 0 8.6329 0C7.30682 0 6.22783 1.07899 6.22783 2.40506V3.05823C4.98707 3.51494 3.87998 4.32937 3.07366 5.38658C2.13948 6.6119 1.64555 8.0757 1.64555 9.62025V13.9159C1.64555 14.8896 1.13036 15.8114 0.30125 16.3218C0.0599844 16.4701 -0.0531801 16.7608 0.0240351 17.0332C0.100997 17.3056 0.349858 17.4937 0.632896 17.4937H5.55821C5.68024 18.0932 5.97543 18.6441 6.41872 19.0856C7.01087 19.6752 7.7972 20 8.6329 20C9.46859 20 10.2549 19.6752 10.8471 19.0856C11.2904 18.6441 11.5856 18.0932 11.7076 17.4937H16.6329C16.9159 17.4937 17.1648 17.3056 17.2418 17.0332C17.319 16.7608 17.2058 16.4701 16.9645 16.3218ZM8.6329 18.7342C7.82834 18.7342 7.13897 18.2218 6.87543 17.5063H10.3904C10.1268 18.2218 9.43745 18.7342 8.6329 18.7342ZM7.49366 2.40506C7.49366 1.77696 8.0048 1.26582 8.6329 1.26582C8.9372 1.26582 9.22328 1.3843 9.43847 1.59949C9.65366 1.81468 9.77214 2.10076 9.77214 2.40506V2.72557C9.7253 2.71797 9.67847 2.71063 9.63138 2.7038C9.58429 2.69722 9.5372 2.69089 9.48986 2.68506C9.44201 2.67924 9.39416 2.67392 9.34606 2.66886C9.32302 2.66658 9.29998 2.66456 9.27669 2.66228C9.25315 2.66025 9.22935 2.65823 9.20555 2.6562C9.10682 2.6481 9.00783 2.64228 8.90859 2.63823C8.89188 2.63772 8.87543 2.63696 8.85897 2.63646C8.83138 2.6357 8.80404 2.63494 8.77644 2.63443C8.75998 2.63392 8.74328 2.63367 8.72657 2.63367C8.69543 2.63316 8.66404 2.63291 8.6329 2.63291C8.6015 2.63291 8.57011 2.63316 8.53872 2.63367C8.52226 2.63367 8.50581 2.63392 8.48935 2.63443C8.4615 2.63494 8.43366 2.6357 8.40581 2.63671C8.39062 2.63696 8.37517 2.63772 8.35973 2.63823C8.23365 2.64304 8.10783 2.65139 7.98252 2.66278C7.96479 2.66456 7.94682 2.66633 7.9291 2.6681C7.91391 2.66962 7.89872 2.67114 7.88353 2.67291C7.86581 2.67468 7.84809 2.67671 7.83036 2.67873C7.81214 2.68076 7.79416 2.68304 7.77619 2.68506C7.7329 2.69038 7.68986 2.69595 7.64682 2.70203C7.64277 2.70278 7.63872 2.70329 7.63467 2.7038C7.58758 2.71063 7.54049 2.71797 7.49366 2.72557V2.40506ZM2.19517 16.2278C2.2653 16.1256 2.33087 16.02 2.39163 15.9114C2.73163 15.3028 2.91138 14.6129 2.91138 13.9159V9.62025C2.91138 7.0881 4.60783 4.8281 7.03695 4.12405C7.5529 3.97468 8.08986 3.89873 8.6329 3.89873C9.17644 3.89873 9.71315 3.97468 10.2286 4.1243C10.2294 4.12456 10.2301 4.12481 10.2309 4.12481C11.1506 4.3919 11.9969 4.89317 12.6785 5.57468C13.7592 6.65519 14.3544 8.0919 14.3544 9.62025V13.9159C14.3544 14.6129 14.5342 15.3028 14.8742 15.9114C14.9349 16.02 15.0005 16.1256 15.0706 16.2278H2.19517Z" fill="#484C52"/>
</svg>
