<svg width="24" height="24" viewBox="0 0 24 24" fill="none" xmlns="http://www.w3.org/2000/svg">
<path fill-rule="evenodd" clip-rule="evenodd" d="M4.42792 15.0371C5.3322 14.1328 6.55867 13.6248 7.83751 13.6248H15.5525C16.8314 13.6248 18.0578 14.1328 18.9621 15.0371C19.8664 15.9413 20.3744 17.1678 20.3744 18.4466V20.3754C20.3744 20.908 19.9426 21.3398 19.41 21.3398C18.8774 21.3398 18.4457 20.908 18.4457 20.3754V18.4466C18.4457 17.6793 18.1408 16.9435 17.5983 16.4009C17.0557 15.8583 16.3198 15.5535 15.5525 15.5535H7.83751C7.0702 15.5535 6.33432 15.8583 5.79176 16.4009C5.24919 16.9435 4.94438 17.6793 4.94438 18.4466V20.3754C4.94438 20.908 4.51261 21.3398 3.98 21.3398C3.44739 21.3398 3.01562 20.908 3.01562 20.3754V18.4466C3.01562 17.1678 3.52364 15.9413 4.42792 15.0371Z" fill="#484C52"/>
<path fill-rule="evenodd" clip-rule="evenodd" d="M11.6949 3.981C10.0971 3.981 8.8018 5.2763 8.8018 6.87413C8.8018 8.47196 10.0971 9.76726 11.6949 9.76726C13.2928 9.76726 14.5881 8.47196 14.5881 6.87413C14.5881 5.2763 13.2928 3.981 11.6949 3.981ZM6.87305 6.87413C6.87305 4.21108 9.03188 2.05225 11.6949 2.05225C14.358 2.05225 16.5168 4.21108 16.5168 6.87413C16.5168 9.53718 14.358 11.696 11.6949 11.696C9.03188 11.696 6.87305 9.53718 6.87305 6.87413Z" fill="#484C52"/>
</svg>
