<svg width="24" height="20" viewBox="0 0 24 20" fill="none" xmlns="http://www.w3.org/2000/svg">
<path d="M4.18961 9.39211C4.36341 9.78735 4.65308 10.5383 5.3483 10.9731C5.86971 12.2774 7.376 13.7991 9.80925 14.392C10.3886 14.5303 10.9969 14.6093 11.6342 14.6093C12.2425 14.6093 12.8508 14.5303 13.4302 14.392C15.8634 13.7991 17.3697 12.2972 17.8911 10.9731C18.5863 10.5383 18.876 9.78735 19.0498 9.39211C19.3105 8.75972 19.5712 7.87042 18.876 7.23802C18.847 7.21826 18.8181 7.1985 18.7891 7.15898C18.847 6.94159 18.876 6.72421 18.905 6.52658C19.7161 2.81128 16.7035 2.57414 16.3559 2.57414C16.3269 2.57414 16.3269 2.55437 16.2979 2.55437C15.9503 1.58602 13.9226 0.57815 12.0108 0.835059C10.1279 1.11173 6.15938 0.795534 6.15938 0.795534C6.10144 1.36864 6.82563 1.76388 6.82563 1.76388C3.49439 3.14724 4.1027 6.11158 4.42134 7.15898C4.39238 7.17874 4.36341 7.1985 4.33444 7.23802C3.6682 7.87042 3.9289 8.75972 4.18961 9.39211ZM5.92764 7.65303C5.95661 7.65303 5.98558 7.65303 6.01454 7.65303V7.63327C5.92764 7.43565 5.5221 6.3092 6.94149 5.63728C8.10018 5.81514 9.83822 5.85467 12.2135 5.16299C16.7614 3.83892 17.1669 7.67279 17.1669 7.67279C17.1959 7.67279 17.2249 7.67279 17.2538 7.67279C17.7173 7.67279 18.2098 7.9297 17.6883 9.15496C17.2828 10.1233 16.9062 10.4 16.6455 10.4C16.3848 11.5462 15.0813 13.0086 12.9377 13.5224C12.5032 13.6212 12.0397 13.6805 11.5763 13.6805C11.1128 13.6805 10.6493 13.6212 10.2148 13.5224C8.10018 13.0086 6.76769 11.5462 6.50699 10.4C6.21731 10.3802 5.84074 10.1233 5.46417 9.15496C4.97172 7.89018 5.46416 7.65303 5.92764 7.65303Z" fill="white"/>
<path d="M17.4567 13.5818C16.5877 14.313 15.4 14.9454 13.8937 15.3011C13.1695 15.4789 12.4164 15.558 11.6343 15.558C10.8522 15.558 10.07 15.4592 9.34586 15.2813C7.83957 14.9058 6.68088 14.2735 5.81186 13.562C4.56627 14.0165 2.39372 14.8466 0.134277 15.973C2.71236 18.4235 6.91262 20.0045 11.6343 20.0045C16.3559 20.0045 20.5562 18.4235 23.1343 15.9928C20.8748 14.8663 18.7313 14.0363 17.4567 13.5818Z" fill="white"/>
</svg>
