<svg width="18" height="19" viewBox="0 0 18 19" fill="none" xmlns="http://www.w3.org/2000/svg">
<path d="M6.78079 16.0417C6.78079 17.2672 7.77423 18.2607 8.99971 18.2607C10.2252 18.2607 11.2186 17.2672 11.2186 16.0417V11.6039H15.6565C16.882 11.6039 17.8754 10.6104 17.8754 9.38496C17.8754 8.15949 16.882 7.16604 15.6565 7.16604H11.2186V2.7282C11.2186 1.50272 10.2252 0.509277 8.99971 0.509277C7.77423 0.509277 6.78079 1.50272 6.78079 2.7282V7.16604L2.34295 7.16604C1.11747 7.16604 0.124023 8.15949 0.124023 9.38496C0.124023 10.6104 1.11747 11.6039 2.34295 11.6039L6.78079 11.6039V16.0417Z" fill="white"/>
</svg>
