<svg width="24" height="24" viewBox="0 0 24 24" fill="none" xmlns="http://www.w3.org/2000/svg">
<path fill-rule="evenodd" clip-rule="evenodd" d="M10.8093 3.981C7.081 3.981 4.05864 7.00336 4.05864 10.7316C4.05864 14.4599 7.081 17.4823 10.8093 17.4823C14.5375 17.4823 17.5599 14.4599 17.5599 10.7316C17.5599 7.00336 14.5375 3.981 10.8093 3.981ZM2.12988 10.7316C2.12988 5.93814 6.01578 2.05225 10.8093 2.05225C15.6028 2.05225 19.4887 5.93814 19.4887 10.7316C19.4887 15.5251 15.6028 19.411 10.8093 19.411C6.01578 19.411 2.12988 15.5251 2.12988 10.7316Z" fill="#484C52"/>
<path fill-rule="evenodd" clip-rule="evenodd" d="M15.5764 15.4983C15.953 15.1217 16.5636 15.1217 16.9402 15.4983L21.1353 19.6933C21.5119 20.0699 21.5119 20.6805 21.1353 21.0572C20.7587 21.4338 20.1481 21.4338 19.7714 21.0572L15.5764 16.8621C15.1998 16.4855 15.1998 15.8749 15.5764 15.4983Z" fill="#484C52"/>
</svg>
