<svg width="22" height="22" viewBox="0 0 22 22" fill="none" xmlns="http://www.w3.org/2000/svg">
<path d="M19.6364 2.36542C19.1782 1.89512 18.5 1.71991 17.8676 1.90434L3.12187 6.19238C2.45469 6.37774 1.9818 6.90982 1.85441 7.58577C1.72427 8.2737 2.17884 9.14698 2.7727 9.51216L7.38339 12.346C7.85628 12.6364 8.46664 12.5636 8.85796 12.1689L14.1377 6.85634C14.4034 6.57969 14.8433 6.57969 15.1091 6.85634C15.3749 7.12376 15.3749 7.55718 15.1091 7.83383L9.82024 13.1473C9.428 13.5411 9.35468 14.1543 9.64337 14.6301L12.4606 19.2871C12.7905 19.8403 13.3587 20.1539 13.9819 20.1539C14.0552 20.1539 14.1377 20.1539 14.211 20.1447C14.9258 20.0524 15.494 19.5637 15.7048 18.8721L20.0763 4.14519C20.2688 3.51812 20.0946 2.83572 19.6364 2.36542Z" fill="white"/>
</svg>
