<svg width="20" height="21" viewBox="0 0 20 21" fill="none" xmlns="http://www.w3.org/2000/svg">
<path d="M6.14378 18.392H3.69853C3.26618 18.392 2.85154 18.2203 2.54583 17.9146C2.24011 17.6089 2.06836 17.1942 2.06836 16.7619V11.0563C2.06836 10.6239 2.24011 10.2093 2.54583 9.90356C2.85154 9.59785 3.26618 9.4261 3.69853 9.4261H6.14378M11.8494 7.79593V4.53559C11.8494 3.88707 11.5918 3.26511 11.1332 2.80653C10.6746 2.34796 10.0526 2.09033 9.40413 2.09033L6.14378 9.4261V18.392H15.3379C15.7311 18.3965 16.1126 18.2587 16.4122 18.0041C16.7117 17.7494 16.9092 17.3951 16.9681 17.0064L18.0929 9.67062C18.1284 9.43699 18.1126 9.19843 18.0468 8.97149C17.9809 8.74454 17.8664 8.53464 17.7114 8.35631C17.5563 8.17799 17.3643 8.03551 17.1487 7.93875C16.9331 7.84198 16.6991 7.79325 16.4628 7.79593H11.8494Z" stroke="#8991A0" stroke-width="1.63017" stroke-linecap="round" stroke-linejoin="round"/>
</svg>
