<svg width="22" height="22" viewBox="0 0 22 22" fill="none" xmlns="http://www.w3.org/2000/svg">
<path d="M6.91249 22C6.43813 22 5.97489 21.8428 5.58947 21.5526L0.948761 18.0655C0.353956 17.6181 0.00095774 16.898 3.27292e-05 16.1312V0.786133C-0.00182038 0.578439 0.0750795 0.377548 0.214979 0.230015C0.353954 0.0824947 0.54388 0 0.743089 0H12.365C13.6204 0.00194118 14.6377 1.06662 14.6386 2.3807V15.3498C14.6368 16.6639 13.6204 17.7296 12.365 17.7305H9.18725V19.6182C9.18076 20.9304 8.16625 21.9931 6.91272 21.9999L6.91249 22ZM1.48221 2.28854V16.1312C1.48221 16.3972 1.60543 16.6476 1.81203 16.8028L6.45369 20.2909C6.69457 20.4685 7.01052 20.4908 7.2727 20.3501C7.53583 20.2094 7.70167 19.927 7.70444 19.6174V7.35087V7.35184C7.70444 7.10823 7.59234 6.88017 7.40334 6.73845L1.48221 2.28854ZM9.18683 16.1777H12.3646C12.8019 16.1777 13.1558 15.807 13.1558 15.3498V2.38072C13.1558 1.92361 12.8019 1.55384 12.3646 1.55287H3.04595L8.26775 5.47672H8.26868C8.84404 5.91055 9.18591 6.60836 9.18683 7.35179L9.18683 16.1777ZM19.3337 11.6588C19.0354 11.6539 18.7695 11.4637 18.6555 11.1764C18.5416 10.8882 18.6018 10.5572 18.8093 10.3331L19.4671 9.64302L16.6468 9.64399C16.2373 9.64399 15.9056 9.29558 15.9056 8.86757C15.9056 8.43859 16.2373 8.09115 16.6468 8.09115H19.4707L18.8092 7.39818V7.39721C18.5294 7.09245 18.534 6.60913 18.8193 6.31022C19.1047 6.0113 19.5661 6.00643 19.857 6.29954L21.7823 8.3163C21.9212 8.46188 22 8.6589 22 8.86561C22 9.07136 21.9212 9.26838 21.7823 9.41395L19.857 11.4307C19.718 11.5773 19.5301 11.6588 19.3337 11.6588Z" fill="white"/>
</svg>
