<svg width="23" height="23" viewBox="0 0 23 23" fill="none" xmlns="http://www.w3.org/2000/svg">
<path d="M10.5993 0.382236C10.5385 0.444181 10.4777 0.554796 10.4603 0.630016C10.4473 0.70966 10.4342 1.55477 10.4342 2.51049V4.24937L8.29678 4.26265C6.16801 4.27592 6.15497 4.27592 5.97251 4.37769C5.68578 4.53255 5.49462 4.72723 5.36429 4.99714C5.25133 5.22722 5.24264 5.29801 5.22961 5.85109L5.21223 6.44842L4.96026 6.50151C4.50409 6.59886 4.08268 6.99265 3.96104 7.43069C3.93931 7.51918 3.91759 7.87315 3.91759 8.21828V8.84215L2.50131 9.45717C1.70628 9.8023 1.04158 10.1164 0.980756 10.1784L0.876489 10.2846V16.1605V22.0409H0.555001C0.268269 22.0409 0.224824 22.0541 0.120558 22.1559C-0.040186 22.324 -0.040186 22.6426 0.120558 22.8107L0.237858 22.9258H11.1294H22.0208L22.1381 22.8107C22.2989 22.6426 22.2989 22.324 22.1381 22.1559C22.0339 22.0541 21.9904 22.0409 21.7037 22.0409H21.3822V16.1605V10.2846L21.2779 10.1784C21.2171 10.1164 20.5524 9.8023 19.7574 9.45717L18.3411 8.84215V8.20943C18.3411 7.68289 18.3281 7.53688 18.2542 7.33777C18.0544 6.79354 17.633 6.50594 16.99 6.47497L16.612 6.45727L16.5946 5.85109C16.5816 5.29801 16.5729 5.22722 16.46 4.99714C16.3296 4.72723 16.1385 4.53255 15.8517 4.37769C15.6693 4.27592 15.6562 4.27592 13.5101 4.26265L11.3466 4.24937V3.83346V3.41754L12.5978 3.40427C13.7925 3.39099 13.8533 3.38657 14.0618 3.28922C14.3442 3.15649 14.6179 2.88216 14.7439 2.59898C14.8308 2.39987 14.8438 2.30253 14.8438 1.82024C14.8438 1.30256 14.8352 1.24947 14.7222 1.01496C14.6527 0.873371 14.5137 0.683111 14.4051 0.58577C14.0618 0.28047 14.0054 0.27162 12.2589 0.27162H10.7079L10.5993 0.382236ZM13.6187 1.20522C13.875 1.27601 13.9619 1.453 13.9445 1.87334C13.9315 2.17864 13.9185 2.23174 13.8099 2.33793L13.6926 2.46182L12.5196 2.47509L11.3466 2.48837V1.82024V1.15655H12.4023C13.0061 1.15655 13.5231 1.17867 13.6187 1.20522ZM15.4781 5.22722C15.6389 5.31571 15.691 5.50597 15.691 6.00153V6.46612H10.9121H6.13325V6.00153C6.13325 5.51482 6.18539 5.32456 6.33744 5.23164C6.44605 5.1697 15.3608 5.16527 15.4781 5.22722ZM17.2072 7.45724C17.2724 7.49263 17.3462 7.57228 17.3766 7.63865C17.4157 7.72272 17.4288 8.50145 17.4288 10.6695V13.5898H11.1294H4.82992V10.6563C4.83427 7.51918 4.82992 7.58113 5.05149 7.45724C5.21223 7.36432 17.0334 7.36874 17.2072 7.45724ZM3.91759 15.957V22.0409H2.85321H1.78882L1.79751 16.4127L1.81054 10.7846L2.83148 10.3333C3.39192 10.0855 3.86546 9.87751 3.88718 9.87751C3.90456 9.87309 3.91759 12.6119 3.91759 15.957ZM19.4055 10.3288L20.4482 10.7846L20.4612 16.4127L20.4699 22.0409H19.4055H18.3411V15.957C18.3411 12.6119 18.3455 9.87309 18.3541 9.87309C18.3585 9.87309 18.8364 10.0766 19.4055 10.3288ZM17.4288 14.9393V15.3596H11.1294H4.82992V14.9393V14.519H11.1294H17.4288V14.9393ZM17.4288 16.7092V17.1295H11.1294H4.82992V16.7092V16.2888H11.1294H17.4288V16.7092ZM8.69647 20.0498V22.0409H6.7632H4.82992V20.0498V18.0587H6.7632H8.69647V20.0498ZM12.6499 20.0498V22.0409H11.1294H9.6088V20.0498V18.0587H11.1294H12.6499V20.0498ZM17.4288 20.0498V22.0409H15.4955H13.5622V20.0498V18.0587H15.4955H17.4288V20.0498Z" fill="white"/>
<path d="M5.91559 8.75775C5.65492 8.89049 5.65492 8.89934 5.66361 10.5497L5.67664 12.0497L5.79829 12.1559C5.96772 12.3019 6.25445 12.3019 6.42388 12.1559C6.54553 12.0497 6.54553 12.0453 6.56725 11.4037L6.58897 10.7577L6.97997 11.3639C7.19719 11.7001 7.41442 12.0276 7.47089 12.0939C7.6577 12.3196 8.02698 12.2975 8.21814 12.0497C8.30068 11.9479 8.30502 11.8638 8.30502 10.4657V8.99668L8.19207 8.85951C8.05305 8.69138 7.84451 8.64271 7.6577 8.74005C7.43179 8.85951 7.39269 8.99668 7.39269 9.67807V10.2842L6.91481 9.54533C6.52381 8.94358 6.40651 8.79314 6.28486 8.74005C6.09805 8.66041 6.09805 8.66041 5.91559 8.75775Z" fill="white"/>
<path d="M10.3908 8.74454C9.35249 9.04099 8.84853 10.2755 9.33511 11.3285C9.49585 11.6737 9.87816 12.0498 10.1997 12.1692C10.4864 12.2798 10.9512 12.302 11.2076 12.2135C11.5986 12.0807 11.9374 11.7489 12.0851 11.3418C12.2024 11.0232 12.2633 10.5321 12.2111 10.3374C12.1416 10.0764 12.0113 10.0277 11.4335 10.0277C10.8557 10.0277 10.7253 10.0808 10.6602 10.333C10.5689 10.6648 10.7427 10.9215 11.0729 10.9436L11.2684 10.9569L11.1641 11.1117C10.8166 11.6338 10.0737 11.2135 10.0737 10.4967C10.0737 10.0675 10.3387 9.69584 10.6949 9.62947C10.8122 9.60735 10.8991 9.62947 11.0642 9.71354C11.364 9.8684 11.5768 9.86398 11.7419 9.70027C11.8418 9.5985 11.8679 9.53213 11.8679 9.38169C11.8679 9.22241 11.8418 9.17373 11.6985 9.03215C11.3987 8.74012 10.8383 8.62065 10.3908 8.74454Z" fill="white"/>
<path d="M14.4749 8.72683C13.958 8.82859 13.5148 9.18256 13.2715 9.68697C13.1108 10.01 13.1064 10.0409 13.1064 10.4878C13.1064 10.9214 13.1151 10.979 13.2411 11.2444C13.4106 11.6073 13.6929 11.9037 14.0448 12.094C14.3142 12.2356 14.3403 12.24 14.8225 12.24C15.2743 12.24 15.3438 12.2267 15.5741 12.1205C16.6819 11.5896 16.9426 10.0985 16.0824 9.22239C15.661 8.7932 15.0701 8.60736 14.4749 8.72683ZM15.0528 9.656C15.3873 9.74892 15.6914 10.1471 15.6914 10.4923C15.6914 10.7135 15.5524 10.9878 15.3612 11.1471C14.8355 11.5896 14.0535 11.24 14.0057 10.5454C13.9797 10.1339 14.1882 9.81971 14.5879 9.6737C14.7964 9.59848 14.8442 9.59405 15.0528 9.656Z" fill="white"/>
</svg>
