<svg width="21" height="22" viewBox="0 0 21 22" fill="none" xmlns="http://www.w3.org/2000/svg">
<path d="M12.1682 18.3689C11.8686 18.3191 10.6102 18.2993 10.4351 18.2993H10.4331C10.2585 18.2993 8.9996 18.3191 8.69995 18.3689C8.39633 18.4243 8.1169 18.554 7.89414 18.743C7.67138 18.9319 7.51443 19.1723 7.44152 19.4362C7.44046 19.4396 7.43964 19.4431 7.43907 19.4465C7.33281 19.9105 7.33281 20.3883 7.43907 20.8523L7.44201 20.863C7.51488 21.1269 7.67176 21.3672 7.89443 21.5562C8.11709 21.7451 8.39641 21.8748 8.69995 21.9304C8.99911 21.9802 10.2585 21.9999 10.4331 21.9999C10.6077 21.9999 11.8666 21.9802 12.1663 21.9304C12.47 21.875 12.7494 21.7453 12.9722 21.5564C13.195 21.3674 13.3519 21.127 13.4247 20.863C13.4258 20.8596 13.4266 20.8562 13.4272 20.8527C13.5337 20.3886 13.5337 19.9106 13.4272 19.4465C13.4266 19.4431 13.4258 19.4396 13.4247 19.4362C13.3521 19.1725 13.1954 18.9322 12.973 18.7433C12.7506 18.5543 12.4716 18.4245 12.1682 18.3689ZM11.6356 20.3366C11.283 20.3529 10.6411 20.3705 10.4434 20.3684H10.4228C10.2266 20.3684 9.58321 20.3529 9.23059 20.3366C9.2252 20.2838 9.22127 20.222 9.22127 20.1511C9.22127 20.0803 9.2252 20.0163 9.23059 19.9626C9.58321 19.9463 10.2247 19.9291 10.4228 19.9309H10.4434C10.6396 19.9309 11.283 19.9463 11.6356 19.9626C11.641 20.0159 11.645 20.0773 11.645 20.1485C11.645 20.2198 11.641 20.2825 11.6356 20.3366Z" fill="white"/>
<path d="M0.217432 16.5146C0.410536 16.9053 0.726515 17.2399 1.12854 17.4795C1.53056 17.719 2.00207 17.8536 2.4881 17.8675C5.12463 17.9379 7.7793 17.9735 10.433 17.9735C13.0867 17.9735 15.7458 17.9379 18.3848 17.8675C18.8698 17.8527 19.3401 17.7177 19.741 17.4782C20.1419 17.2388 20.457 16.9046 20.6495 16.5146C21.0321 15.7593 20.9036 14.9105 20.3146 14.3008C19.8001 13.7671 19.2484 13.1944 18.627 12.5542C18.6427 11.8179 18.6128 10.5169 18.5476 9.07645C19.1703 8.69933 19.7007 8.21718 20.1078 7.65825C20.5149 7.09933 20.7904 6.47488 20.9183 5.82152C21.0462 5.16815 21.0238 4.49902 20.8524 3.85333C20.681 3.20765 20.3642 2.59841 19.9204 2.06132C19.4766 1.52424 18.9148 1.07012 18.2679 0.725582C17.621 0.381045 16.9021 0.153024 16.1533 0.0548848C15.4045 -0.0432542 14.6408 -0.00953642 13.907 0.154062C13.1733 0.31766 12.4842 0.607846 11.8802 1.00761C11.4138 0.976697 10.9269 0.96167 10.433 0.959094C9.11642 0.953777 7.80328 1.07705 6.51793 1.32662L6.5042 1.3292C4.71562 1.70359 3.07122 3.19646 2.67348 4.80396C2.43906 5.69486 2.20267 10.7982 2.23897 12.5542C1.6176 13.1982 1.06587 13.7689 0.553373 14.3013C-0.0366089 14.9105 -0.1651 15.7593 0.217432 16.5146ZM15.2818 1.64864C16.0384 1.64864 16.778 1.84505 17.4071 2.21304C18.0361 2.58103 18.5264 3.10406 18.816 3.716C19.1055 4.32795 19.1813 5.00131 19.0336 5.65094C18.886 6.30058 18.5217 6.89731 17.9867 7.36567C17.4518 7.83403 16.7702 8.15298 16.0281 8.2822C15.2861 8.41142 14.5169 8.3451 13.8179 8.09163C13.119 7.83815 12.5215 7.40891 12.1012 6.85818C11.6809 6.30744 11.4565 5.65996 11.4565 4.99759C11.4582 4.10985 11.8618 3.25889 12.5788 2.63115C13.2958 2.00342 14.2678 1.65011 15.2818 1.64864ZM1.97806 15.3519C2.50232 14.8062 3.06729 14.2205 3.70534 13.5611C3.9671 13.2897 4.10847 12.945 4.10356 12.5899V12.5804C4.05452 10.7857 4.31494 5.80092 4.48659 5.17234C4.48659 5.1659 4.49002 5.15946 4.49149 5.15302C4.73229 4.16937 5.84752 3.14708 6.9294 2.91738C7.62482 2.7817 8.72337 2.60309 10.3016 2.59107C9.76298 3.44368 9.52187 4.41586 9.60809 5.38724C9.69431 6.35861 10.1041 7.28652 10.7866 8.05605C11.4692 8.82558 12.3946 9.40295 13.4482 9.71665C14.5018 10.0304 15.6374 10.0666 16.7144 9.82095C16.7595 10.9888 16.7776 11.9982 16.7634 12.5804V12.5899C16.7585 12.945 16.8999 13.2897 17.1616 13.5611C17.7992 14.2205 18.3646 14.8062 18.8904 15.3527C19.0664 15.5357 19.0007 15.7447 18.9458 15.8529C18.8551 16.032 18.6432 16.2269 18.3244 16.2368C13.0886 16.3768 7.78028 16.3768 2.54695 16.2368C2.41214 16.2307 2.28202 16.1914 2.17151 16.1235C2.06101 16.0556 1.97459 15.9619 1.92215 15.8529C1.86624 15.7447 1.80151 15.5357 1.97806 15.3519Z" fill="white"/>
<path d="M14.7754 7.5595C15.1053 7.60415 15.441 7.60415 15.7709 7.5595C15.8704 7.54096 15.9616 7.4976 16.0334 7.43466C16.1053 7.37173 16.1549 7.29191 16.176 7.20485C16.227 6.91618 16.227 6.62236 16.176 6.33369C16.1549 6.24661 16.1054 6.16677 16.0335 6.10382C15.9616 6.04087 15.8704 5.99753 15.7709 5.97905C15.441 5.93439 15.1053 5.93439 14.7754 5.97905C14.6759 5.99753 14.5847 6.04087 14.5128 6.10382C14.4409 6.16677 14.3914 6.24661 14.3703 6.33369C14.3193 6.62236 14.3193 6.91618 14.3703 7.20485C14.3915 7.29191 14.441 7.37173 14.5129 7.43466C14.5848 7.4976 14.6759 7.54096 14.7754 7.5595Z" fill="white"/>
<path d="M15.2814 5.45242C15.5285 5.45242 15.7656 5.36648 15.9403 5.21349C16.1151 5.0605 16.2132 4.85301 16.2132 4.63665V3.12876C16.2132 2.9124 16.1151 2.70491 15.9403 2.55192C15.7656 2.39894 15.5285 2.31299 15.2814 2.31299C15.0343 2.31299 14.7973 2.39894 14.6225 2.55192C14.4478 2.70491 14.3496 2.9124 14.3496 3.12876V4.63665C14.3496 4.85301 14.4478 5.0605 14.6225 5.21349C14.7973 5.36648 15.0343 5.45242 15.2814 5.45242Z" fill="white"/>
</svg>
