<svg width="24" height="24" viewBox="0 0 24 24" fill="none" xmlns="http://www.w3.org/2000/svg">
<path d="M16.154 0.8H23.4C23.621 0.8 23.8 0.621 23.8 0.4C23.8 0.179 23.62 0 23.4 0H11.9C5.338 0 0 5.338 0 11.9C0 16.96 3.181 21.282 7.643 23H0.4C0.179 23 0 23.18 0 23.4C0 23.62 0.179 23.8 0.4 23.8H11.9C18.462 23.8 23.8 18.461 23.8 11.9C23.8 6.839 20.618 2.517 16.154 0.8ZM11.9 23C5.779 23 0.8 18.02 0.8 11.9C0.8 5.779 5.779 0.8 11.9 0.8C18.02 0.8 23 5.779 23 11.9C23 18.02 18.02 23 11.9 23Z" fill="white"/>
<path d="M17.9881 12.116L17.7381 12.366L16.8421 11.47L16.8601 11.452C17.0831 11.23 17.2061 10.934 17.2071 10.62C17.2071 10.305 17.0841 10.009 16.8611 9.787C16.7131 9.639 16.5281 9.554 16.3311 9.501C16.3501 9.416 16.3821 9.334 16.3821 9.245C16.3821 8.93 16.2591 8.634 16.0361 8.412C15.8881 8.264 15.7031 8.179 15.5061 8.126C15.5921 7.745 15.5081 7.333 15.2121 7.036C15.0611 6.885 14.8751 6.802 14.6811 6.751C14.7001 6.666 14.7321 6.583 14.7321 6.494C14.7321 6.18 14.6091 5.884 14.3871 5.662C14.1651 5.439 13.8701 5.317 13.5561 5.316C13.5551 5.316 13.5551 5.316 13.5551 5.316C13.5021 5.316 13.4551 5.339 13.4031 5.346L11.9441 5.057C11.1631 4.9 10.5841 4.928 10.2491 5.125C9.85213 5.022 9.40713 5.102 9.10813 5.402C8.88613 5.625 8.76413 5.921 8.76413 6.235C8.76413 6.329 8.79613 6.414 8.81713 6.503C8.62913 6.556 8.44813 6.638 8.30113 6.787C8.07813 7.009 7.95613 7.305 7.95613 7.62C7.95613 7.748 7.99013 7.868 8.02813 7.986C7.85913 8.043 7.70013 8.127 7.57013 8.257C7.34813 8.48 7.22613 8.775 7.22613 9.09C7.22613 9.255 7.26413 9.413 7.32913 9.56C7.18313 9.619 7.04913 9.704 6.93413 9.819C6.71113 10.042 6.58913 10.338 6.58913 10.652C6.58913 10.958 6.71013 11.244 6.92113 11.463L6.02813 12.356L5.81113 12.139C5.65513 11.983 5.40213 11.983 5.24613 12.139L3.65313 13.732C3.57813 13.807 3.53613 13.909 3.53613 14.015C3.53613 14.121 3.57813 14.223 3.65313 14.298L8.08313 18.727C8.16113 18.805 8.26313 18.844 8.36613 18.844C8.46913 18.844 8.57113 18.805 8.64913 18.727L10.2421 17.134C10.3171 17.059 10.3591 16.957 10.3591 16.851C10.3591 16.745 10.3171 16.643 10.2421 16.568L9.96013 16.286L11.1381 15.108C11.2021 15.043 11.5071 15.081 11.7291 15.109C12.0011 15.143 12.3231 15.182 12.6541 15.139L13.8101 16.295L13.5611 16.544C13.4051 16.7 13.4051 16.954 13.5611 17.11L15.1541 18.704C15.2291 18.778 15.3311 18.821 15.4371 18.821C15.5431 18.821 15.6451 18.778 15.7201 18.704L20.1501 14.274C20.2241 14.199 20.2671 14.097 20.2671 13.991C20.2671 13.885 20.2241 13.783 20.1501 13.708L18.5561 12.115C18.3981 11.96 18.1441 11.96 17.9881 12.116ZM11.7901 5.841L12.4201 5.966L11.8801 6.506L11.1311 5.758C11.2971 5.764 11.5081 5.785 11.7901 5.841ZM9.67513 5.967C9.74713 5.895 9.84113 5.856 9.94213 5.856C9.97213 5.856 10.0001 5.866 10.0281 5.873C10.0601 5.914 10.1011 5.948 10.1511 5.971C10.1751 5.982 10.1961 5.971 10.2191 5.978L11.6951 7.454C11.8421 7.6 11.8411 7.84 11.6951 7.987C11.5551 8.128 11.3101 8.127 11.1671 7.989C11.1661 7.988 11.1651 7.985 11.1641 7.984L9.96613 6.785C9.96213 6.781 9.95613 6.779 9.95113 6.775L9.67413 6.499C9.60313 6.429 9.56413 6.334 9.56413 6.234C9.56413 6.134 9.60313 6.039 9.67513 5.967ZM8.86713 7.352C8.94113 7.278 9.03713 7.242 9.13313 7.242C9.22713 7.242 9.31913 7.28 9.39213 7.349L10.5961 8.554C10.5981 8.556 10.6011 8.557 10.6031 8.559C10.6701 8.629 10.7081 8.719 10.7081 8.816C10.7081 8.917 10.6691 9.012 10.5971 9.085C10.5271 9.156 10.4321 9.195 10.3321 9.195C10.2311 9.195 10.1361 9.155 10.0641 9.084L8.86613 7.885C8.79513 7.814 8.75613 7.719 8.75613 7.619C8.75613 7.518 8.79613 7.423 8.86713 7.352ZM8.13713 8.822C8.20813 8.75 8.30213 8.711 8.40213 8.711C8.50313 8.711 8.59813 8.751 8.67013 8.822L9.50013 9.651C9.57113 9.722 9.61013 9.817 9.61013 9.917C9.61013 10.017 9.57113 10.113 9.49913 10.185C9.42913 10.256 9.33413 10.295 9.23413 10.295C9.13413 10.295 9.03913 10.256 8.96713 10.184L8.13713 9.354C8.06613 9.284 8.02713 9.189 8.02713 9.089C8.02713 8.989 8.06513 8.894 8.13713 8.822ZM7.86613 11.283L7.49913 10.916C7.42813 10.845 7.38913 10.751 7.38913 10.65C7.38913 10.549 7.42813 10.455 7.49913 10.383C7.57113 10.312 7.66613 10.272 7.76613 10.272C7.86613 10.272 7.96013 10.312 8.03213 10.383L8.40013 10.75C8.47113 10.821 8.51013 10.916 8.51013 11.016C8.51013 11.116 8.47113 11.212 8.39913 11.284C8.25613 11.426 8.00913 11.427 7.86613 11.283ZM8.36413 17.879L4.50013 14.016L5.52713 12.989L5.74313 13.205L5.74413 13.206L7.42613 14.888L9.39013 16.852L8.36413 17.879ZM11.8251 14.315C11.3941 14.259 10.9101 14.202 10.5701 14.543L9.39213 15.72L7.93813 14.266L6.59413 12.922L7.52013 11.996C7.70513 12.112 7.90913 12.194 8.13313 12.194C8.44713 12.194 8.74313 12.071 8.96513 11.849C9.17113 11.643 9.28013 11.371 9.29713 11.083C9.58713 11.067 9.85913 10.957 10.0651 10.75C10.2711 10.543 10.3811 10.271 10.3971 9.982C10.6861 9.966 10.9581 9.856 11.1641 9.649C11.3691 9.443 11.4771 9.173 11.4951 8.885C11.7841 8.868 12.0551 8.759 12.2611 8.552C12.6541 8.157 12.6891 7.562 12.4071 7.109L13.2901 6.227C13.3611 6.156 13.4561 6.117 13.5571 6.117C13.6581 6.117 13.7511 6.156 13.8231 6.227C13.8951 6.298 13.9341 6.394 13.9341 6.494C13.9341 6.594 13.8951 6.689 13.8241 6.76L13.8231 6.761L13.5491 7.035C13.5491 7.035 13.5491 7.035 13.5481 7.035C13.5471 7.035 13.5481 7.034 13.5481 7.035L13.1801 7.404C13.0241 7.56 13.0241 7.814 13.1801 7.969C13.2581 8.047 13.3611 8.086 13.4631 8.086C13.5651 8.086 13.6681 8.047 13.7461 7.969L14.1141 7.6C14.2621 7.456 14.4991 7.452 14.6461 7.6C14.7921 7.748 14.7931 7.987 14.6471 8.134L14.6461 8.135L14.3711 8.409C14.3711 8.409 14.3701 8.409 14.3701 8.41C14.3701 8.411 14.3701 8.411 14.3691 8.411L14.0011 8.778C13.8451 8.934 13.8451 9.187 14.0011 9.343C14.0791 9.421 14.1821 9.46 14.2841 9.46C14.3861 9.46 14.4891 9.421 14.5671 9.343L14.9361 8.974C15.0071 8.903 15.1021 8.864 15.2021 8.864C15.3031 8.864 15.3961 8.903 15.4691 8.975C15.5401 9.046 15.5791 9.142 15.5791 9.242C15.5791 9.342 15.5401 9.436 15.4691 9.507C15.4671 9.509 15.4671 9.511 15.4651 9.513L15.1961 9.783C15.1951 9.784 15.1941 9.784 15.1941 9.784C15.1941 9.784 15.1931 9.785 15.1931 9.786L14.8261 10.153C14.6701 10.309 14.6701 10.563 14.8261 10.718C14.9041 10.796 15.0071 10.835 15.1091 10.835C15.2111 10.835 15.3141 10.796 15.3921 10.718L15.7621 10.347C15.8331 10.277 15.9271 10.238 16.0261 10.238C16.1271 10.238 16.2201 10.277 16.2931 10.349C16.3641 10.42 16.4031 10.516 16.4031 10.616C16.4031 10.716 16.3641 10.81 16.2921 10.882L13.1001 14.08C12.7761 14.407 12.3831 14.382 11.8251 14.315ZM14.3741 15.729L13.4781 14.833L13.6611 14.65C13.6631 14.648 13.6651 14.647 13.6671 14.645L15.0581 13.253L16.2771 12.034L17.1731 12.93L14.3741 15.729ZM15.4351 17.856L14.4081 16.828L18.2711 12.965L19.2991 13.992L15.4351 17.856Z" fill="white"/>
</svg>
