<svg width="23" height="23" viewBox="0 0 23 23" fill="none" xmlns="http://www.w3.org/2000/svg">
<path d="M1.75501 0.0994568C0.979169 0.355404 0.315688 1.04701 0.0856104 1.84208C0.0107013 2.10892 0 3.10004 0 11.3285C0 20.1941 0.00535065 20.5263 0.101662 20.8476C0.347792 21.6481 1.02197 22.3288 1.81387 22.563C2.0707 22.6393 2.66997 22.6501 6.76322 22.6501C11.3166 22.6501 11.429 22.6447 11.6002 22.5412C12.1085 22.2254 12.1299 21.365 11.627 21.0328C11.4932 20.9402 11.1989 20.9347 6.92909 20.9075C2.5041 20.8803 2.37569 20.8748 2.19912 20.7714C1.96369 20.6298 1.82457 20.4337 1.76571 20.1669C1.70151 19.8837 1.70151 2.76241 1.76571 2.47923C1.82457 2.21239 1.96369 2.01635 2.19912 1.87476C2.38104 1.76584 2.4934 1.76584 10.8886 1.74951C15.5704 1.73862 19.5192 1.74951 19.6743 1.76584C20.0061 1.80396 20.2576 1.96733 20.4074 2.22873C20.5197 2.41388 20.5197 2.50101 20.5465 7.04818C20.5732 11.3939 20.5786 11.6934 20.6696 11.8295C20.8247 12.0746 21.0709 12.1944 21.4026 12.1944C21.7504 12.1944 21.9912 12.0637 22.1517 11.8023C22.2534 11.628 22.2587 11.5137 22.2587 6.87937C22.2587 2.7134 22.248 2.10348 22.1731 1.84208C21.943 1.03612 21.2742 0.349958 20.4876 0.0994568C20.1719 0.00143242 19.8509 -0.00401306 11.1133 0.00143242C2.4827 0.00143242 2.04395 0.0068779 1.75501 0.0994568Z" fill="white"/>
<path d="M5.02989 5.88888C4.7035 6.06315 4.58578 6.2483 4.55903 6.62405C4.54298 6.89089 4.55903 6.97258 4.66604 7.13051C4.7356 7.23397 4.87472 7.37556 4.97103 7.44091L5.15295 7.56616H11.1296H17.1063L17.2882 7.44091C17.3845 7.37556 17.5237 7.23397 17.5932 7.13051C17.7002 6.97258 17.7163 6.89089 17.7002 6.62405C17.6735 6.2483 17.5558 6.06315 17.2294 5.88888L16.9939 5.76908H11.1296H5.26532L5.02989 5.88888Z" fill="white"/>
<path d="M4.91738 10.5826C4.41977 10.9257 4.43582 11.7589 4.93878 12.0802C5.1207 12.1946 5.17421 12.1946 7.70507 12.1946C10.2359 12.1946 10.2894 12.1946 10.4714 12.0802C10.9797 11.7589 10.9797 10.8876 10.4714 10.5663C10.2894 10.452 10.2359 10.452 7.69972 10.452H5.11L4.91738 10.5826Z" fill="white"/>
<path d="M14.8213 11.6775C13.5157 11.9497 12.4403 12.7938 11.8517 14.0191C11.5414 14.6508 11.4504 15.0266 11.4129 15.7672C11.2685 18.7024 13.8849 20.8971 16.7315 20.2272C17.1542 20.1292 17.7963 19.8297 18.1441 19.5737C18.2885 19.4703 18.4169 19.3831 18.433 19.3831C18.449 19.3831 19.0002 19.8188 19.6583 20.3579C20.3111 20.8916 20.9264 21.3708 21.0174 21.4198C21.3866 21.6159 21.9323 21.4634 22.1517 21.0985C22.2534 20.9352 22.2694 20.8426 22.248 20.554C22.2213 20.1129 22.2641 20.1564 20.7391 18.9203L19.5459 17.9509L19.6957 17.5861C19.8616 17.1885 20.0114 16.4207 20.0114 15.985C20.0061 14.2315 18.9681 12.6305 17.3896 11.9443C16.6352 11.6121 15.6346 11.5086 14.8213 11.6775ZM16.3034 13.4691C17.2773 13.7305 18.0156 14.5528 18.1922 15.5657C18.4865 17.2375 16.9402 18.8113 15.3082 18.5173C13.8261 18.245 12.8737 16.7747 13.2429 15.3261C13.4729 14.4439 14.1792 13.7142 15.0407 13.48C15.4099 13.3765 15.9503 13.3711 16.3034 13.4691Z" fill="white"/>
</svg>
