<svg width="23" height="24" viewBox="0 0 23 24" fill="none" xmlns="http://www.w3.org/2000/svg">
<path d="M20.0328 5.33955H18.3375C19.2723 4.40723 19.6693 3.31952 19.3094 2.3946C19.1054 1.86925 18.6825 1.45858 18.0926 1.1996C16.9982 0.726043 15.4142 0.814835 13.8523 1.44008C12.7134 1.89884 11.7674 2.57589 11.1553 3.32322C10.5432 2.54999 9.57866 1.85445 8.40637 1.38089C6.84455 0.75564 5.25676 0.666848 4.16238 1.14041C3.56881 1.39569 3.14961 1.81005 2.94557 2.33171C2.57459 3.28623 2.9938 4.39613 3.96947 5.33955H2.22587C0.997932 5.33955 0 6.33477 0 7.55937V9.03924C0 10.0049 0.619534 10.8225 1.48391 11.1296V19.7683C1.48391 21.6034 2.98267 23.0981 4.82272 23.0981H8.90348H8.90719H13.3515H13.3552H17.436C19.276 23.0981 20.7748 21.6034 20.7748 19.7683V11.1296C21.6392 10.8225 22.2587 10.0049 22.2587 9.03924V7.55937C22.2587 6.33477 21.2608 5.33955 20.0328 5.33955ZM14.4051 2.81267C15.57 2.34651 16.7831 2.24661 17.499 2.55739C17.7216 2.65358 17.8663 2.77937 17.9257 2.93106C18.126 3.44161 17.3803 4.58482 15.7258 5.34325H13.3552H11.8936C11.8824 5.31736 11.8787 5.29516 11.8713 5.26926C11.875 5.21376 11.875 5.16197 11.875 5.11017C11.9381 4.45903 12.8396 3.44161 14.4051 2.81267ZM4.32932 2.86816C4.38867 2.72017 4.52965 2.59439 4.75223 2.49819C5.46822 2.18742 6.68503 2.28731 7.8499 2.75347C9.37833 3.36762 10.3392 4.41093 10.3874 5.08428C10.3874 5.12127 10.3874 5.16197 10.3874 5.19897C10.3837 5.23226 10.3763 5.26556 10.3614 5.30256C10.3577 5.31366 10.3466 5.32476 10.3429 5.33955H8.90348H6.66277C4.93772 4.59222 4.12528 3.38982 4.32932 2.86816ZM1.48391 7.55937C1.48391 7.1524 1.81779 6.81943 2.22587 6.81943H6.50325C6.50696 6.81943 6.50696 6.81943 6.51067 6.81943H6.51438H8.16152V9.77918H2.22587C1.81779 9.77918 1.48391 9.44621 1.48391 9.03924V7.55937ZM2.96783 19.7683V11.2591H8.16152V21.6182H4.82272C3.79882 21.6182 2.96783 20.7895 2.96783 19.7683ZM9.64544 10.5191V6.81943H11.5337H11.5374H12.6133V10.5191V21.6182H9.64544V10.5191ZM19.2909 19.7683C19.2909 20.7895 18.4599 21.6182 17.436 21.6182H14.0972V11.2591H19.2909V19.7683ZM20.7748 9.03924C20.7748 9.44621 20.4409 9.77918 20.0328 9.77918H14.0972V6.81943H15.8853H15.889H15.8927H20.0328C20.4409 6.81943 20.7748 7.1524 20.7748 7.55937V9.03924Z" fill="white"/>
</svg>
