<svg width="23" height="24" viewBox="0 0 23 24" fill="none" xmlns="http://www.w3.org/2000/svg">
<path d="M3.45838 0.69015C1.85752 1.01775 0.52202 2.29716 0.100054 3.89975L0 4.27605V8.59241V12.9088L0.100054 13.2851C0.53507 14.9408 1.96192 16.2556 3.59324 16.5168C3.82814 16.5522 5.85097 16.5611 11.3104 16.5522L18.7057 16.5389L19.0537 16.4371C20.6546 15.9723 21.8813 14.622 22.1902 12.984C22.2815 12.5015 22.2815 4.68334 22.1902 4.20079C21.8813 2.56279 20.6546 1.21254 19.0537 0.747702L18.7057 0.64588L11.2234 0.637026C5.1854 0.632599 3.68459 0.641453 3.45838 0.69015ZM18.6622 2.53623C19.5235 2.83726 20.1674 3.53231 20.411 4.43542C20.4849 4.69662 20.4893 5.01979 20.4893 8.59241C20.4893 12.165 20.4849 12.4882 20.411 12.7494C20.1674 13.6525 19.5235 14.3476 18.6622 14.6486L18.3142 14.7681H11.1147H3.91515L3.54538 14.6309C2.6971 14.3254 2.10548 13.7012 1.84012 12.8424L1.74007 12.5103V8.59241V4.67448L1.84012 4.34246C1.97497 3.91303 2.14898 3.60314 2.44479 3.27997C2.86676 2.81513 3.43663 2.51409 4.0239 2.43883C4.18051 2.42112 7.46053 2.40784 11.3104 2.41227L18.3142 2.41669L18.6622 2.53623Z" fill="white"/>
<path d="M5.35114 4.24915C4.45936 4.51477 3.75463 5.24523 3.52407 6.14392C3.42402 6.52908 3.42837 10.6506 3.52842 11.0402C3.75898 11.9522 4.50721 12.7136 5.39899 12.9483C5.74266 13.0368 6.39083 13.0412 6.73449 12.9483C7.63933 12.7092 8.37451 11.9611 8.60941 11.0402C8.67032 10.8144 8.67902 10.4293 8.67902 8.59208C8.67902 6.75486 8.67032 6.3697 8.60941 6.14392C8.37451 5.2231 7.63933 4.47493 6.73449 4.23587C6.37778 4.1429 5.69045 4.14733 5.35114 4.24915ZM6.45173 6.06424C6.63444 6.16163 6.72144 6.25017 6.83455 6.4671C6.91285 6.61319 6.9172 6.75043 6.9172 8.59208C6.9172 10.5223 6.9172 10.5665 6.82585 10.7392C6.66054 11.0535 6.41258 11.204 6.06892 11.204C5.72526 11.204 5.4773 11.0535 5.31199 10.7392C5.22064 10.5665 5.22064 10.5223 5.22064 8.59208C5.22064 6.66189 5.22064 6.61762 5.31199 6.44496C5.41639 6.24575 5.50775 6.15721 5.69915 6.05538C5.88186 5.95799 6.25163 5.96242 6.45173 6.06424Z" fill="white"/>
<path d="M15.4429 4.24915C14.5512 4.51477 13.8464 5.24523 13.6159 6.14392C13.5158 6.52908 13.5202 10.6506 13.6202 11.0402C13.8508 11.9522 14.599 12.7136 15.4908 12.9483C15.8345 13.0368 16.4826 13.0412 16.8263 12.9483C17.7311 12.7092 18.4663 11.9611 18.7012 11.0402C18.7621 10.8144 18.7708 10.4293 18.7708 8.59208C18.7708 6.75486 18.7621 6.3697 18.7012 6.14392C18.4663 5.2231 17.7311 4.47493 16.8263 4.23587C16.4696 4.1429 15.7823 4.14733 15.4429 4.24915ZM16.5435 6.06424C16.7262 6.16163 16.8132 6.25017 16.9263 6.4671C17.0046 6.61319 17.009 6.75043 17.009 8.59208C17.009 10.5223 17.009 10.5665 16.9176 10.7392C16.7523 11.0535 16.5044 11.204 16.1607 11.204C15.8171 11.204 15.5691 11.0535 15.4038 10.7392C15.3124 10.5665 15.3124 10.5223 15.3124 8.59208C15.3124 6.66189 15.3124 6.61762 15.4038 6.44496C15.5082 6.24575 15.5995 6.15721 15.791 6.05538C15.9737 5.95799 16.3434 5.96242 16.5435 6.06424Z" fill="white"/>
<path d="M10.6487 6.05107C10.379 6.21488 10.2441 6.47164 10.2441 6.82138C10.2441 7.36591 10.5791 7.70679 11.1142 7.70679C11.6492 7.70679 11.9842 7.36591 11.9842 6.82138C11.9842 6.27685 11.6492 5.93597 11.1098 5.93597C10.888 5.93597 10.7923 5.95811 10.6487 6.05107Z" fill="white"/>
<path d="M10.6487 9.59233C10.379 9.75613 10.2441 10.0129 10.2441 10.3626C10.2441 10.9072 10.5791 11.248 11.1142 11.248C11.6492 11.248 11.9842 10.9072 11.9842 10.3626C11.9842 9.81811 11.6492 9.47723 11.1098 9.47723C10.888 9.47723 10.7923 9.49937 10.6487 9.59233Z" fill="white"/>
<path d="M3.86338 18.4466C3.75898 18.5086 3.62847 18.6414 3.56757 18.7477L3.45882 18.938V20.2263V21.519H2.88459C2.35387 21.519 2.30167 21.5278 2.12767 21.6297C1.85361 21.7935 1.71875 22.0502 1.71875 22.4044C1.71875 22.7586 1.85361 23.0153 2.12767 23.1791L2.31472 23.2898H4.32885H6.34297L6.53003 23.1791C6.80409 23.0153 6.93895 22.7586 6.93895 22.4044C6.93895 22.0502 6.80409 21.7935 6.53003 21.6297C6.35602 21.5278 6.30382 21.519 5.7731 21.519H5.19888V20.2263V18.938L5.09013 18.7477C4.92917 18.4688 4.67686 18.3315 4.3245 18.3315C4.10264 18.3315 4.00694 18.3536 3.86338 18.4466Z" fill="white"/>
<path d="M17.4356 18.4466C17.3312 18.5086 17.2007 18.6414 17.1398 18.7477L17.0311 18.938V20.2263V21.519H16.4569C15.9261 21.519 15.8739 21.5278 15.6999 21.6297C15.4259 21.7935 15.291 22.0502 15.291 22.4044C15.291 22.7586 15.4259 23.0153 15.6999 23.1791L15.887 23.2898H17.9011H19.9152L20.1023 23.1791C20.3764 23.0153 20.5112 22.7586 20.5112 22.4044C20.5112 22.0502 20.3764 21.7935 20.1023 21.6297C19.9283 21.5278 19.8761 21.519 19.3454 21.519H18.7711V20.2263V18.938L18.6624 18.7477C18.5014 18.4688 18.2491 18.3315 17.8968 18.3315C17.6749 18.3315 17.5792 18.3536 17.4356 18.4466Z" fill="white"/>
</svg>
