<svg width="23" height="24" viewBox="0 0 23 24" fill="none" xmlns="http://www.w3.org/2000/svg">
<path d="M9.84436 0.467039C9.37392 0.617771 8.93397 0.950268 8.6944 1.3271C8.48531 1.66403 8.38513 2.01426 8.35464 2.51966L8.3285 2.97185L8.17169 3.02505C8.08457 3.05165 7.78401 3.17135 7.50088 3.29548L6.99124 3.51715L6.69068 3.23342C5.98066 2.56399 5.08335 2.40882 4.26879 2.81669C4.00744 2.94969 3.85062 3.08712 3.21466 3.73881C2.58741 4.38164 2.44367 4.55454 2.33477 4.79394C1.95145 5.62296 2.10826 6.52293 2.75729 7.23669L3.03607 7.54702L2.88361 7.88838C2.80085 8.07458 2.67888 8.38048 2.61355 8.56668L2.49594 8.90361L2.05599 8.93021C1.12382 8.98341 0.518353 9.3824 0.143745 10.1848L0 10.4907V11.7542V13.0177L0.143745 13.3236C0.518353 14.126 1.12382 14.525 2.05599 14.5782L2.49594 14.6048L2.61355 14.9418C2.67888 15.128 2.80085 15.4339 2.88361 15.6201L3.03607 15.9614L2.75729 16.2718C2.26507 16.8126 2.05599 17.4377 2.15182 18.085C2.24329 18.7012 2.36962 18.9051 3.21466 19.7696C4.05971 20.6341 4.30364 20.7981 4.88298 20.8868C5.5625 20.9932 6.17668 20.776 6.73859 20.2307L6.98688 19.9913L7.50088 20.213C7.78401 20.3371 8.08457 20.4568 8.17169 20.4834L8.3285 20.5366L8.35464 20.9888C8.40691 21.9375 8.79458 22.5537 9.58736 22.935L9.88792 23.0813H11.1294H12.3708L12.6713 22.935C13.4598 22.5582 13.8518 21.9375 13.9041 20.9932L13.9302 20.5455L14.2613 20.4213C14.4442 20.3548 14.7448 20.2307 14.9321 20.142L15.2675 19.9869L15.5201 20.2307C16.082 20.776 16.7006 20.9932 17.3844 20.8868C17.9551 20.7981 18.2033 20.6297 19.044 19.7696C19.6713 19.1268 19.815 18.9539 19.9239 18.7145C20.3029 17.8855 20.1504 16.9811 19.5014 16.2718L19.2226 15.9659L19.4404 15.4472C19.5624 15.159 19.6844 14.8531 19.7148 14.7644L19.7671 14.6048L20.2071 14.5782C21.1349 14.525 21.7447 14.126 22.115 13.3236L22.2587 13.0177V11.7542V10.4907L22.115 10.1848C21.7447 9.3824 21.1349 8.98341 20.2071 8.93021L19.7671 8.90361L19.7148 8.74401C19.6844 8.65534 19.5624 8.34945 19.4404 8.06128L19.2226 7.54258L19.5014 7.23669C20.1592 6.51406 20.3116 5.6008 19.9109 4.77177C19.7802 4.50577 19.6452 4.34618 19.0048 3.69891C18.3732 3.06052 18.2033 2.91422 17.9681 2.80339C17.1536 2.41326 16.2693 2.57285 15.568 3.23342L15.2631 3.51715L14.9277 3.36642C14.7448 3.27775 14.4398 3.15362 14.2569 3.08269L13.9171 2.95412V2.68812C13.9171 1.84136 13.5992 1.17193 13.0024 0.755203C12.5494 0.440439 12.3664 0.404972 11.1163 0.409405C10.3584 0.409405 9.96632 0.427139 9.84436 0.467039ZM12.1443 1.84136C12.2401 1.89013 12.3664 2.00539 12.4274 2.10293C12.5407 2.27583 12.545 2.31572 12.5668 3.01619C12.5973 4.01811 12.5712 3.98265 13.5033 4.28411C13.7908 4.37721 14.2917 4.59444 14.6141 4.75847C15.1716 5.04664 15.2152 5.06437 15.4504 5.04664L15.6987 5.03334L16.1996 4.53681C16.7615 3.98265 16.9053 3.90728 17.2407 3.99594C17.3932 4.04028 17.5325 4.15998 18.064 4.69641C18.591 5.23727 18.7086 5.37914 18.7522 5.5343C18.8393 5.87566 18.7653 6.02196 18.2208 6.59386L17.7329 7.10369L17.7198 7.35639C17.7024 7.59578 17.7198 7.64012 18.003 8.20758C18.1641 8.53564 18.3776 9.04547 18.4691 9.33807C18.7653 10.2868 18.7304 10.2602 19.7148 10.2912C20.4031 10.3134 20.4423 10.3178 20.6122 10.4331C20.9214 10.6415 20.9519 10.7656 20.9519 11.7542C20.9519 12.7428 20.9214 12.867 20.6122 13.0753C20.4423 13.1906 20.4031 13.195 19.7148 13.2172C18.7304 13.2482 18.7653 13.2216 18.4691 14.1704C18.3776 14.463 18.1641 14.9728 18.003 15.3009C17.7198 15.8683 17.7024 15.9127 17.7198 16.1521L17.7329 16.4047L18.2208 16.9146C18.7653 17.4865 18.8393 17.6328 18.7522 17.9697C18.7086 18.1293 18.591 18.2712 18.064 18.812C17.5325 19.3485 17.3932 19.4682 17.2407 19.5125C16.9053 19.6012 16.7615 19.5258 16.1996 18.9716L15.6987 18.4751L15.4504 18.4618C15.2152 18.4441 15.1716 18.4618 14.6141 18.75C14.2917 18.914 13.7908 19.1312 13.5033 19.2243C12.5712 19.5258 12.5973 19.4903 12.5668 20.4923C12.545 21.1927 12.5407 21.2326 12.4274 21.4055C12.2227 21.7203 12.1007 21.7513 11.1294 21.7513C10.158 21.7513 10.036 21.7203 9.83129 21.4055C9.71804 21.2326 9.71368 21.1927 9.6919 20.4923C9.66141 19.4903 9.68754 19.5258 8.75538 19.2243C8.46789 19.1312 7.96696 18.914 7.64462 18.75C7.08707 18.4618 7.04351 18.4441 6.80829 18.4618L6.56 18.4751L6.05907 18.9716C5.49716 19.5258 5.35341 19.6012 5.01801 19.5125C4.86555 19.4682 4.72616 19.3485 4.19474 18.812C3.66768 18.2712 3.55007 18.1293 3.50651 17.9697C3.41939 17.6328 3.49344 17.4865 4.03793 16.9146L4.52579 16.4047L4.53886 16.1521C4.55628 15.9127 4.53886 15.8683 4.25572 15.3009C4.09456 14.9728 3.88112 14.463 3.78964 14.1704C3.49344 13.2216 3.52829 13.2482 2.54385 13.2172C1.85562 13.195 1.81641 13.1906 1.64653 13.0753C1.33726 12.867 1.30677 12.7428 1.30677 11.7542C1.30677 10.7656 1.33726 10.6415 1.64653 10.4331C1.81641 10.3178 1.85562 10.3134 2.54385 10.2912C3.52829 10.2602 3.49344 10.2868 3.78964 9.33807C3.88112 9.04547 4.09456 8.53564 4.25572 8.20758C4.53886 7.64012 4.55628 7.59578 4.53886 7.35639L4.52579 7.10369L4.03793 6.59386C3.49344 6.02196 3.41939 5.87566 3.50651 5.5343C3.55007 5.37914 3.66768 5.23727 4.19474 4.69641C4.90911 3.96935 5.03108 3.89841 5.37519 3.99594C5.51894 4.03584 5.66268 4.15111 6.05907 4.53681C6.55564 5.02447 6.56 5.0289 6.79522 5.05107C7.02173 5.0688 7.06529 5.05107 7.65333 4.75404C7.99745 4.58114 8.52016 4.35948 8.81636 4.26194C9.11692 4.16441 9.40441 4.05358 9.45232 4.02254C9.64398 3.89398 9.6919 3.69448 9.6919 3.05609C9.6919 2.36006 9.7311 2.18273 9.93148 1.97879C10.1362 1.77043 10.3235 1.7394 11.2165 1.74826C11.8611 1.75713 12.0049 1.77043 12.1443 1.84136Z" fill="white"/>
<path d="M10.4844 6.83823C9.81798 6.9269 8.93373 7.26383 8.40231 7.63623C8.02335 7.89779 7.61389 8.28792 7.31769 8.66032C6.97357 9.09922 6.55541 9.92824 6.42473 10.4469C6.21129 11.2893 6.21129 12.2291 6.42473 13.0626C6.52927 13.4571 6.86032 14.2064 7.08247 14.53C7.94494 15.8112 9.32141 16.6048 10.846 16.7023C12.4054 16.8043 13.943 16.1083 14.9405 14.8492C15.2846 14.4103 15.7028 13.5813 15.8335 13.0626C16.0469 12.2203 16.0469 11.2893 15.8335 10.4469C15.7028 9.92824 15.2846 9.09922 14.9405 8.66032C14.4483 8.03966 13.93 7.62736 13.2069 7.27713C12.3618 6.86483 11.4166 6.7141 10.4844 6.83823ZM11.9785 8.27906C13.2461 8.62485 14.1739 9.56028 14.5354 10.8592C14.6748 11.3469 14.6705 12.1671 14.5354 12.6592C14.1826 13.9138 13.2504 14.8625 12.0134 15.2216C11.5299 15.3635 10.7284 15.3635 10.2405 15.2216C8.99472 14.8581 8.07997 13.9271 7.72279 12.6592C7.59647 12.2025 7.58776 11.3513 7.70537 10.9124C8.10175 9.44501 9.20815 8.43422 10.6717 8.19039C10.9157 8.15492 11.7128 8.20369 11.9785 8.27906Z" fill="white"/>
</svg>
