<svg width="18" height="17" viewBox="0 0 18 17" fill="none" xmlns="http://www.w3.org/2000/svg">
<path d="M12.6066 0C15.4426 0 17.3327 2.02406 17.3327 4.9284V11.7374C17.3327 14.6419 15.4425 16.6667 12.6066 16.6667H5.38378C2.54915 16.6667 0.666016 14.6435 0.666016 11.7374V4.9284C0.666016 2.02549 2.55465 0 5.38378 0H12.6066ZM12.6066 1.2532H5.38378C3.26656 1.2532 1.91852 2.69892 1.91852 4.9284V11.7374C1.91852 13.9706 3.26159 15.4135 5.38378 15.4135H12.6066C14.7309 15.4135 16.0802 13.9682 16.0802 11.7374V4.9284C16.0802 2.69787 14.7311 1.2532 12.6066 1.2532ZM13.2001 8.48626L13.3087 8.59052L15.0422 10.3801C15.2829 10.6286 15.2767 11.0253 15.0283 11.2661C14.8025 11.4851 14.4543 11.4998 14.212 11.314L14.1428 11.2523L12.4094 9.46278C12.1074 9.15114 11.6164 9.14823 11.31 9.43911L11.2427 9.51144L9.38177 11.776C8.72352 12.5783 7.53917 12.6642 6.77289 11.9919L6.67107 11.8956L5.9284 11.1373C5.73332 10.9348 5.42221 10.9156 5.20556 11.079L5.13714 11.1403L3.86042 12.4879C3.62247 12.7391 3.22609 12.7497 2.97508 12.5116C2.74688 12.2952 2.71738 11.9477 2.89267 11.6976L2.95141 11.6258L4.22786 10.2784C4.89985 9.56825 6.00645 9.53043 6.72228 10.1639L6.82662 10.264L7.56555 11.0183C7.78155 11.2388 8.12775 11.2444 8.35097 11.0461L8.41399 10.9805L10.2751 8.71572C11.0145 7.8152 12.346 7.72405 13.2001 8.48626ZM6.14322 3.8677C7.29737 3.8677 8.23407 4.80491 8.23407 5.9597C8.23407 7.11449 7.29737 8.0517 6.14322 8.0517C4.98912 8.0517 4.05321 7.11454 4.05321 5.9597C4.05321 4.80486 4.98912 3.8677 6.14322 3.8677ZM6.14322 5.12089C5.68108 5.12089 5.30571 5.49676 5.30571 5.9597C5.30571 6.42264 5.68108 6.7985 6.14322 6.7985C6.60563 6.7985 6.98156 6.42237 6.98156 5.9597C6.98156 5.49703 6.60563 5.12089 6.14322 5.12089Z" fill="white"/>
</svg>
